<mxfile host="app.diagrams.net" modified="2024-05-31T12:47:39.363Z" agent="Mozilla/5.0 (Windows NT 10.0; Win64; x64) AppleWebKit/537.36 (KHTML, like Gecko) Chrome/125.0.0.0 Safari/537.36" etag="dMkCMlph9IzJPfGO2Xy8" version="24.4.12" type="google">
  <diagram id="C5RBs43oDa-KdzZeNtuy" name="DiagramaER">
    <mxGraphModel grid="1" page="1" gridSize="10" guides="1" tooltips="1" connect="1" arrows="1" fold="1" pageScale="1" pageWidth="827" pageHeight="1169" math="0" shadow="0">
      <root>
        <mxCell id="WIyWlLk6GJQsqaUBKTNV-0" />
        <mxCell id="WIyWlLk6GJQsqaUBKTNV-1" parent="WIyWlLk6GJQsqaUBKTNV-0" />
        <mxCell id="2T5H_hkiswAVR6A3PdZY-13" style="rounded=0;orthogonalLoop=1;jettySize=auto;html=1;exitX=0.5;exitY=0;exitDx=0;exitDy=0;entryX=0;entryY=0.5;entryDx=0;entryDy=0;endArrow=none;endFill=0;labelBackgroundColor=none;strokeColor=#182E3E;fontColor=default;" edge="1" parent="WIyWlLk6GJQsqaUBKTNV-1" source="2T5H_hkiswAVR6A3PdZY-14" target="2T5H_hkiswAVR6A3PdZY-0">
          <mxGeometry relative="1" as="geometry" />
        </mxCell>
        <mxCell id="WIyWlLk6GJQsqaUBKTNV-7" value="Equipos&amp;nbsp;" style="rounded=0;whiteSpace=wrap;html=1;fontSize=12;glass=0;strokeWidth=1;shadow=0;labelBackgroundColor=none;fillColor=#56517E;strokeColor=#EEEEEE;fontColor=#FFFFFF;" vertex="1" parent="WIyWlLk6GJQsqaUBKTNV-1">
          <mxGeometry x="-355" y="350" width="120" height="30" as="geometry" />
        </mxCell>
        <mxCell id="3uJ8KbO14XV1aPpEETvO-7" style="rounded=0;orthogonalLoop=1;jettySize=auto;html=1;endArrow=none;endFill=0;exitX=0.5;exitY=1;exitDx=0;exitDy=0;labelBackgroundColor=none;strokeColor=#182E3E;fontColor=default;" edge="1" parent="WIyWlLk6GJQsqaUBKTNV-1" source="WIyWlLk6GJQsqaUBKTNV-10" target="WIyWlLk6GJQsqaUBKTNV-11">
          <mxGeometry relative="1" as="geometry">
            <mxPoint x="525" y="1435" as="sourcePoint" />
          </mxGeometry>
        </mxCell>
        <mxCell id="WIyWlLk6GJQsqaUBKTNV-10" value="Rol_Usuario" style="rhombus;whiteSpace=wrap;html=1;shadow=0;fontFamily=Helvetica;fontSize=12;align=center;strokeWidth=1;spacing=6;spacingTop=-4;labelBackgroundColor=none;fillColor=#56517E;strokeColor=#EEEEEE;fontColor=#FFFFFF;" vertex="1" parent="WIyWlLk6GJQsqaUBKTNV-1">
          <mxGeometry x="486" y="1510" width="100" height="80" as="geometry" />
        </mxCell>
        <mxCell id="WIyWlLk6GJQsqaUBKTNV-11" value="Rol" style="rounded=0;whiteSpace=wrap;html=1;fontSize=12;glass=0;strokeWidth=1;shadow=0;labelBackgroundColor=none;fillColor=#56517E;strokeColor=#EEEEEE;fontColor=#FFFFFF;" vertex="1" parent="WIyWlLk6GJQsqaUBKTNV-1">
          <mxGeometry x="476" y="1775" width="120" height="35" as="geometry" />
        </mxCell>
        <mxCell id="3uJ8KbO14XV1aPpEETvO-6" style="rounded=0;orthogonalLoop=1;jettySize=auto;html=1;exitX=0.5;exitY=1;exitDx=0;exitDy=0;endArrow=none;endFill=0;labelBackgroundColor=none;strokeColor=#182E3E;fontColor=default;" edge="1" parent="WIyWlLk6GJQsqaUBKTNV-1" source="WIyWlLk6GJQsqaUBKTNV-12" target="WIyWlLk6GJQsqaUBKTNV-10">
          <mxGeometry relative="1" as="geometry" />
        </mxCell>
        <mxCell id="3uJ8KbO14XV1aPpEETvO-16" style="rounded=0;orthogonalLoop=1;jettySize=auto;html=1;exitX=0.5;exitY=0;exitDx=0;exitDy=0;endArrow=none;endFill=0;labelBackgroundColor=none;strokeColor=#182E3E;fontColor=default;" edge="1" parent="WIyWlLk6GJQsqaUBKTNV-1" source="WIyWlLk6GJQsqaUBKTNV-12" target="3uJ8KbO14XV1aPpEETvO-15">
          <mxGeometry relative="1" as="geometry">
            <mxPoint x="1063" y="1305" as="sourcePoint" />
          </mxGeometry>
        </mxCell>
        <mxCell id="EHw-qd7V3THNP2IJrnIF-2" style="rounded=0;orthogonalLoop=1;jettySize=auto;html=1;exitX=0;exitY=0.5;exitDx=0;exitDy=0;strokeColor=#182E3E;endArrow=none;endFill=0;" edge="1" parent="WIyWlLk6GJQsqaUBKTNV-1" source="WIyWlLk6GJQsqaUBKTNV-12" target="EHw-qd7V3THNP2IJrnIF-1">
          <mxGeometry relative="1" as="geometry" />
        </mxCell>
        <mxCell id="WIyWlLk6GJQsqaUBKTNV-12" value="Usuario" style="rounded=0;whiteSpace=wrap;html=1;fontSize=12;glass=0;strokeWidth=1;shadow=0;labelBackgroundColor=none;fillColor=#56517E;strokeColor=#EEEEEE;fontColor=#FFFFFF;" vertex="1" parent="WIyWlLk6GJQsqaUBKTNV-1">
          <mxGeometry x="476" y="1282.5" width="120" height="30" as="geometry" />
        </mxCell>
        <mxCell id="3uJ8KbO14XV1aPpEETvO-8" style="rounded=0;orthogonalLoop=1;jettySize=auto;html=1;exitX=0.5;exitY=0;exitDx=0;exitDy=0;entryX=0.25;entryY=1;entryDx=0;entryDy=0;endArrow=none;endFill=0;labelBackgroundColor=none;strokeColor=#182E3E;fontColor=default;" edge="1" parent="WIyWlLk6GJQsqaUBKTNV-1" source="3uJ8KbO14XV1aPpEETvO-1" target="WIyWlLk6GJQsqaUBKTNV-11">
          <mxGeometry relative="1" as="geometry" />
        </mxCell>
        <mxCell id="3uJ8KbO14XV1aPpEETvO-1" value="idRol" style="ellipse;whiteSpace=wrap;html=1;align=center;fontStyle=4;labelBackgroundColor=none;fillColor=#56517E;strokeColor=#EEEEEE;fontColor=#FFFFFF;" vertex="1" parent="WIyWlLk6GJQsqaUBKTNV-1">
          <mxGeometry x="406" y="1865" width="100" height="40" as="geometry" />
        </mxCell>
        <mxCell id="3uJ8KbO14XV1aPpEETvO-9" style="rounded=0;orthogonalLoop=1;jettySize=auto;html=1;exitX=0.5;exitY=0;exitDx=0;exitDy=0;entryX=0.75;entryY=1;entryDx=0;entryDy=0;endArrow=none;endFill=0;labelBackgroundColor=none;strokeColor=#182E3E;fontColor=default;" edge="1" parent="WIyWlLk6GJQsqaUBKTNV-1" source="3uJ8KbO14XV1aPpEETvO-2" target="WIyWlLk6GJQsqaUBKTNV-11">
          <mxGeometry relative="1" as="geometry" />
        </mxCell>
        <mxCell id="3uJ8KbO14XV1aPpEETvO-2" value="descripción" style="ellipse;whiteSpace=wrap;html=1;align=center;labelBackgroundColor=none;fillColor=#56517E;strokeColor=#EEEEEE;fontColor=#FFFFFF;" vertex="1" parent="WIyWlLk6GJQsqaUBKTNV-1">
          <mxGeometry x="566" y="1865" width="100" height="40" as="geometry" />
        </mxCell>
        <mxCell id="3uJ8KbO14XV1aPpEETvO-10" style="rounded=0;orthogonalLoop=1;jettySize=auto;html=1;exitX=1;exitY=1;exitDx=0;exitDy=0;entryX=0.25;entryY=0;entryDx=0;entryDy=0;endArrow=none;endFill=0;labelBackgroundColor=none;strokeColor=#182E3E;fontColor=default;" edge="1" parent="WIyWlLk6GJQsqaUBKTNV-1" source="3uJ8KbO14XV1aPpEETvO-3" target="WIyWlLk6GJQsqaUBKTNV-12">
          <mxGeometry relative="1" as="geometry" />
        </mxCell>
        <mxCell id="3uJ8KbO14XV1aPpEETvO-3" value="idUsuario" style="ellipse;whiteSpace=wrap;html=1;align=center;fontStyle=4;labelBackgroundColor=none;fillColor=#56517E;strokeColor=#EEEEEE;fontColor=#FFFFFF;" vertex="1" parent="WIyWlLk6GJQsqaUBKTNV-1">
          <mxGeometry x="140" y="1190" width="100" height="40" as="geometry" />
        </mxCell>
        <mxCell id="3uJ8KbO14XV1aPpEETvO-11" style="rounded=0;orthogonalLoop=1;jettySize=auto;html=1;exitX=0.5;exitY=1;exitDx=0;exitDy=0;entryX=0.25;entryY=0;entryDx=0;entryDy=0;endArrow=none;endFill=0;labelBackgroundColor=none;strokeColor=#182E3E;fontColor=default;" edge="1" parent="WIyWlLk6GJQsqaUBKTNV-1" source="3uJ8KbO14XV1aPpEETvO-4" target="WIyWlLk6GJQsqaUBKTNV-12">
          <mxGeometry relative="1" as="geometry" />
        </mxCell>
        <mxCell id="3uJ8KbO14XV1aPpEETvO-4" value="noidentificacion" style="ellipse;whiteSpace=wrap;html=1;align=center;labelBackgroundColor=none;fillColor=#56517E;strokeColor=#EEEEEE;fontColor=#FFFFFF;" vertex="1" parent="WIyWlLk6GJQsqaUBKTNV-1">
          <mxGeometry x="236" y="1089" width="100" height="40" as="geometry" />
        </mxCell>
        <mxCell id="3uJ8KbO14XV1aPpEETvO-12" style="rounded=0;orthogonalLoop=1;jettySize=auto;html=1;exitX=0.5;exitY=1;exitDx=0;exitDy=0;entryX=0.25;entryY=0;entryDx=0;entryDy=0;endArrow=none;endFill=0;labelBackgroundColor=none;strokeColor=#182E3E;fontColor=default;" edge="1" parent="WIyWlLk6GJQsqaUBKTNV-1" source="3uJ8KbO14XV1aPpEETvO-5" target="WIyWlLk6GJQsqaUBKTNV-12">
          <mxGeometry relative="1" as="geometry" />
        </mxCell>
        <mxCell id="3uJ8KbO14XV1aPpEETvO-5" value="contraseña" style="ellipse;whiteSpace=wrap;html=1;align=center;labelBackgroundColor=none;fillColor=#56517E;strokeColor=#EEEEEE;fontColor=#FFFFFF;" vertex="1" parent="WIyWlLk6GJQsqaUBKTNV-1">
          <mxGeometry x="347" y="1020" width="100" height="40" as="geometry" />
        </mxCell>
        <mxCell id="3uJ8KbO14XV1aPpEETvO-17" style="rounded=0;orthogonalLoop=1;jettySize=auto;html=1;exitX=0.5;exitY=1;exitDx=0;exitDy=0;entryX=0.5;entryY=0;entryDx=0;entryDy=0;endArrow=none;endFill=0;labelBackgroundColor=none;strokeColor=#182E3E;fontColor=default;" edge="1" parent="WIyWlLk6GJQsqaUBKTNV-1" source="3uJ8KbO14XV1aPpEETvO-13" target="3uJ8KbO14XV1aPpEETvO-15">
          <mxGeometry relative="1" as="geometry" />
        </mxCell>
        <mxCell id="2T5H_hkiswAVR6A3PdZY-21" style="rounded=0;orthogonalLoop=1;jettySize=auto;html=1;exitX=1;exitY=0.5;exitDx=0;exitDy=0;entryX=0;entryY=0.5;entryDx=0;entryDy=0;endArrow=none;endFill=0;labelBackgroundColor=none;strokeColor=#182E3E;fontColor=default;" edge="1" parent="WIyWlLk6GJQsqaUBKTNV-1" source="3uJ8KbO14XV1aPpEETvO-13" target="2T5H_hkiswAVR6A3PdZY-19">
          <mxGeometry relative="1" as="geometry" />
        </mxCell>
        <mxCell id="3uJ8KbO14XV1aPpEETvO-13" value="Casos" style="whiteSpace=wrap;html=1;align=center;labelBackgroundColor=none;fillColor=#56517E;strokeColor=#EEEEEE;fontColor=#FFFFFF;" vertex="1" parent="WIyWlLk6GJQsqaUBKTNV-1">
          <mxGeometry x="483" y="349" width="100" height="30" as="geometry" />
        </mxCell>
        <mxCell id="3uJ8KbO14XV1aPpEETvO-32" style="rounded=0;orthogonalLoop=1;jettySize=auto;html=1;exitX=1;exitY=0.5;exitDx=0;exitDy=0;entryX=0;entryY=0.5;entryDx=0;entryDy=0;endArrow=none;endFill=0;labelBackgroundColor=none;strokeColor=#182E3E;fontColor=default;" edge="1" parent="WIyWlLk6GJQsqaUBKTNV-1" source="3uJ8KbO14XV1aPpEETvO-14" target="3uJ8KbO14XV1aPpEETvO-31">
          <mxGeometry relative="1" as="geometry" />
        </mxCell>
        <mxCell id="3uJ8KbO14XV1aPpEETvO-14" value="TipoEquipo" style="whiteSpace=wrap;html=1;align=center;labelBackgroundColor=none;fillColor=#56517E;strokeColor=#EEEEEE;fontColor=#FFFFFF;" vertex="1" parent="WIyWlLk6GJQsqaUBKTNV-1">
          <mxGeometry x="-1253" y="351" width="100" height="30" as="geometry" />
        </mxCell>
        <mxCell id="3uJ8KbO14XV1aPpEETvO-40" style="rounded=0;orthogonalLoop=1;jettySize=auto;html=1;exitX=0;exitY=0.5;exitDx=0;exitDy=0;endArrow=none;endFill=0;entryX=1;entryY=0.5;entryDx=0;entryDy=0;labelBackgroundColor=none;strokeColor=#182E3E;fontColor=default;" edge="1" parent="WIyWlLk6GJQsqaUBKTNV-1" source="3uJ8KbO14XV1aPpEETvO-15" target="3uJ8KbO14XV1aPpEETvO-37">
          <mxGeometry relative="1" as="geometry">
            <mxPoint x="464.17589548150636" y="769.6471227242773" as="targetPoint" />
          </mxGeometry>
        </mxCell>
        <mxCell id="3uJ8KbO14XV1aPpEETvO-46" style="rounded=0;orthogonalLoop=1;jettySize=auto;html=1;exitX=0;exitY=1;exitDx=0;exitDy=0;entryX=0.5;entryY=0;entryDx=0;entryDy=0;endArrow=none;endFill=0;labelBackgroundColor=none;strokeColor=#182E3E;fontColor=default;" edge="1" parent="WIyWlLk6GJQsqaUBKTNV-1" source="3uJ8KbO14XV1aPpEETvO-15" target="3uJ8KbO14XV1aPpEETvO-44">
          <mxGeometry relative="1" as="geometry" />
        </mxCell>
        <mxCell id="3uJ8KbO14XV1aPpEETvO-47" style="rounded=0;orthogonalLoop=1;jettySize=auto;html=1;exitX=1;exitY=1;exitDx=0;exitDy=0;entryX=0.5;entryY=0;entryDx=0;entryDy=0;endArrow=none;endFill=0;labelBackgroundColor=none;strokeColor=#182E3E;fontColor=default;" edge="1" parent="WIyWlLk6GJQsqaUBKTNV-1" source="3uJ8KbO14XV1aPpEETvO-15" target="3uJ8KbO14XV1aPpEETvO-43">
          <mxGeometry relative="1" as="geometry" />
        </mxCell>
        <mxCell id="3uJ8KbO14XV1aPpEETvO-15" value="DetalleCaso" style="shape=rhombus;perimeter=rhombusPerimeter;whiteSpace=wrap;html=1;align=center;labelBackgroundColor=none;fillColor=#56517E;strokeColor=#EEEEEE;fontColor=#FFFFFF;" vertex="1" parent="WIyWlLk6GJQsqaUBKTNV-1">
          <mxGeometry x="476" y="720" width="120" height="60" as="geometry" />
        </mxCell>
        <mxCell id="3uJ8KbO14XV1aPpEETvO-18" value="1 : N" style="text;strokeColor=none;fillColor=none;spacingLeft=4;spacingRight=4;overflow=hidden;rotatable=0;points=[[0,0.5],[1,0.5]];portConstraint=eastwest;fontSize=12;whiteSpace=wrap;html=1;labelBackgroundColor=none;fontColor=#FFFFFF;" vertex="1" parent="WIyWlLk6GJQsqaUBKTNV-1">
          <mxGeometry x="546" y="1745" width="40" height="30" as="geometry" />
        </mxCell>
        <mxCell id="3uJ8KbO14XV1aPpEETvO-19" value="N : 1" style="text;strokeColor=none;fillColor=none;spacingLeft=4;spacingRight=4;overflow=hidden;rotatable=0;points=[[0,0.5],[1,0.5]];portConstraint=eastwest;fontSize=12;whiteSpace=wrap;html=1;labelBackgroundColor=none;fontColor=#FFFFFF;" vertex="1" parent="WIyWlLk6GJQsqaUBKTNV-1">
          <mxGeometry x="620" y="1325" width="40" height="30" as="geometry" />
        </mxCell>
        <mxCell id="3uJ8KbO14XV1aPpEETvO-20" value="1 :&amp;nbsp; N" style="text;strokeColor=none;fillColor=none;spacingLeft=4;spacingRight=4;overflow=hidden;rotatable=0;points=[[0,0.5],[1,0.5]];portConstraint=eastwest;fontSize=12;whiteSpace=wrap;html=1;labelBackgroundColor=none;fontColor=#FFFFFF;" vertex="1" parent="WIyWlLk6GJQsqaUBKTNV-1">
          <mxGeometry x="596" y="1535" width="40" height="30" as="geometry" />
        </mxCell>
        <mxCell id="3uJ8KbO14XV1aPpEETvO-21" value="N : 1" style="text;strokeColor=none;fillColor=none;spacingLeft=4;spacingRight=4;overflow=hidden;rotatable=0;points=[[0,0.5],[1,0.5]];portConstraint=eastwest;fontSize=12;whiteSpace=wrap;html=1;labelBackgroundColor=none;fontColor=#FFFFFF;" vertex="1" parent="WIyWlLk6GJQsqaUBKTNV-1">
          <mxGeometry x="710" y="1260" width="40" height="30" as="geometry" />
        </mxCell>
        <mxCell id="3uJ8KbO14XV1aPpEETvO-22" value="N : 1" style="text;strokeColor=none;fillColor=none;spacingLeft=4;spacingRight=4;overflow=hidden;rotatable=0;points=[[0,0.5],[1,0.5]];portConstraint=eastwest;fontSize=12;whiteSpace=wrap;html=1;labelBackgroundColor=none;fontColor=#FFFFFF;" vertex="1" parent="WIyWlLk6GJQsqaUBKTNV-1">
          <mxGeometry x="480" y="394" width="40" height="30" as="geometry" />
        </mxCell>
        <mxCell id="3uJ8KbO14XV1aPpEETvO-23" value="N : N" style="text;strokeColor=none;fillColor=none;spacingLeft=4;spacingRight=4;overflow=hidden;rotatable=0;points=[[0,0.5],[1,0.5]];portConstraint=eastwest;fontSize=12;whiteSpace=wrap;html=1;labelBackgroundColor=none;fontColor=#FFFFFF;" vertex="1" parent="WIyWlLk6GJQsqaUBKTNV-1">
          <mxGeometry x="436" y="720" width="40" height="30" as="geometry" />
        </mxCell>
        <mxCell id="3uJ8KbO14XV1aPpEETvO-26" style="rounded=0;orthogonalLoop=1;jettySize=auto;html=1;exitX=1;exitY=0.5;exitDx=0;exitDy=0;endArrow=none;endFill=0;labelBackgroundColor=none;strokeColor=#182E3E;fontColor=default;" edge="1" parent="WIyWlLk6GJQsqaUBKTNV-1" source="3uJ8KbO14XV1aPpEETvO-25" target="3uJ8KbO14XV1aPpEETvO-13">
          <mxGeometry relative="1" as="geometry" />
        </mxCell>
        <mxCell id="0LzQlJv-D6ySPSGVPF1X-0" style="rounded=0;orthogonalLoop=1;jettySize=auto;html=1;exitX=0;exitY=0.5;exitDx=0;exitDy=0;entryX=1;entryY=0.5;entryDx=0;entryDy=0;endArrow=none;endFill=0;" edge="1" parent="WIyWlLk6GJQsqaUBKTNV-1" source="3uJ8KbO14XV1aPpEETvO-25" target="WIyWlLk6GJQsqaUBKTNV-7">
          <mxGeometry relative="1" as="geometry" />
        </mxCell>
        <mxCell id="3uJ8KbO14XV1aPpEETvO-25" value="equipo_caso" style="shape=rhombus;perimeter=rhombusPerimeter;whiteSpace=wrap;html=1;align=center;labelBackgroundColor=none;fillColor=#56517E;strokeColor=#EEEEEE;fontColor=#FFFFFF;" vertex="1" parent="WIyWlLk6GJQsqaUBKTNV-1">
          <mxGeometry x="60" y="334" width="120" height="60" as="geometry" />
        </mxCell>
        <mxCell id="3uJ8KbO14XV1aPpEETvO-28" value="1 : N" style="text;strokeColor=none;fillColor=none;spacingLeft=4;spacingRight=4;overflow=hidden;rotatable=0;points=[[0,0.5],[1,0.5]];portConstraint=eastwest;fontSize=12;whiteSpace=wrap;html=1;labelBackgroundColor=none;fontColor=#FFFFFF;" vertex="1" parent="WIyWlLk6GJQsqaUBKTNV-1">
          <mxGeometry x="430" y="329" width="40" height="30" as="geometry" />
        </mxCell>
        <mxCell id="3uJ8KbO14XV1aPpEETvO-30" value="N : 1" style="text;strokeColor=none;fillColor=none;spacingLeft=4;spacingRight=4;overflow=hidden;rotatable=0;points=[[0,0.5],[1,0.5]];portConstraint=eastwest;fontSize=12;whiteSpace=wrap;html=1;labelBackgroundColor=none;fontColor=#FFFFFF;" vertex="1" parent="WIyWlLk6GJQsqaUBKTNV-1">
          <mxGeometry x="100" y="299" width="40" height="30" as="geometry" />
        </mxCell>
        <mxCell id="0LzQlJv-D6ySPSGVPF1X-3" style="rounded=0;orthogonalLoop=1;jettySize=auto;html=1;exitX=1;exitY=0.5;exitDx=0;exitDy=0;entryX=0;entryY=0.5;entryDx=0;entryDy=0;endArrow=none;endFill=0;" edge="1" parent="WIyWlLk6GJQsqaUBKTNV-1" source="3uJ8KbO14XV1aPpEETvO-31" target="WIyWlLk6GJQsqaUBKTNV-7">
          <mxGeometry relative="1" as="geometry" />
        </mxCell>
        <mxCell id="3uJ8KbO14XV1aPpEETvO-31" value="Tipos_Equipos" style="shape=rhombus;perimeter=rhombusPerimeter;whiteSpace=wrap;html=1;align=center;labelBackgroundColor=none;fillColor=#56517E;strokeColor=#EEEEEE;fontColor=#FFFFFF;" vertex="1" parent="WIyWlLk6GJQsqaUBKTNV-1">
          <mxGeometry x="-807" y="336" width="120" height="60" as="geometry" />
        </mxCell>
        <mxCell id="3uJ8KbO14XV1aPpEETvO-34" value="N : 1" style="text;strokeColor=none;fillColor=none;spacingLeft=4;spacingRight=4;overflow=hidden;rotatable=0;points=[[0,0.5],[1,0.5]];portConstraint=eastwest;fontSize=12;whiteSpace=wrap;html=1;labelBackgroundColor=none;fontColor=#FFFFFF;" vertex="1" parent="WIyWlLk6GJQsqaUBKTNV-1">
          <mxGeometry x="-410" y="720" width="40" height="30" as="geometry" />
        </mxCell>
        <mxCell id="3uJ8KbO14XV1aPpEETvO-35" value="1 : N" style="text;strokeColor=none;fillColor=none;spacingLeft=4;spacingRight=4;overflow=hidden;rotatable=0;points=[[0,0.5],[1,0.5]];portConstraint=eastwest;fontSize=12;whiteSpace=wrap;html=1;labelBackgroundColor=none;fontColor=#FFFFFF;" vertex="1" parent="WIyWlLk6GJQsqaUBKTNV-1">
          <mxGeometry x="-1150" y="336" width="40" height="30" as="geometry" />
        </mxCell>
        <mxCell id="3uJ8KbO14XV1aPpEETvO-36" value="1 : N" style="text;strokeColor=none;fillColor=none;spacingLeft=4;spacingRight=4;overflow=hidden;rotatable=0;points=[[0,0.5],[1,0.5]];portConstraint=eastwest;fontSize=12;whiteSpace=wrap;html=1;labelBackgroundColor=none;fontColor=#FFFFFF;" vertex="1" parent="WIyWlLk6GJQsqaUBKTNV-1">
          <mxGeometry x="-867" y="326" width="40" height="30" as="geometry" />
        </mxCell>
        <mxCell id="3uJ8KbO14XV1aPpEETvO-37" value="idDetalle" style="ellipse;whiteSpace=wrap;html=1;align=center;fontStyle=4;labelBackgroundColor=none;fillColor=#56517E;strokeColor=#EEEEEE;fontColor=#FFFFFF;" vertex="1" parent="WIyWlLk6GJQsqaUBKTNV-1">
          <mxGeometry x="336" y="730" width="100" height="40" as="geometry" />
        </mxCell>
        <mxCell id="3uJ8KbO14XV1aPpEETvO-43" value="idCaso" style="ellipse;whiteSpace=wrap;html=1;align=center;labelBackgroundColor=none;fillColor=#56517E;strokeColor=#EEEEEE;fontColor=#FFFFFF;" vertex="1" parent="WIyWlLk6GJQsqaUBKTNV-1">
          <mxGeometry x="643" y="790" width="100" height="40" as="geometry" />
        </mxCell>
        <mxCell id="3uJ8KbO14XV1aPpEETvO-44" value="idUsuario" style="ellipse;whiteSpace=wrap;html=1;align=center;labelBackgroundColor=none;fillColor=#56517E;strokeColor=#EEEEEE;fontColor=#FFFFFF;" vertex="1" parent="WIyWlLk6GJQsqaUBKTNV-1">
          <mxGeometry x="364" y="820" width="100" height="40" as="geometry" />
        </mxCell>
        <mxCell id="3uJ8KbO14XV1aPpEETvO-49" style="rounded=0;orthogonalLoop=1;jettySize=auto;html=1;exitX=0;exitY=1;exitDx=0;exitDy=0;endArrow=none;endFill=0;entryX=1;entryY=0.25;entryDx=0;entryDy=0;labelBackgroundColor=none;strokeColor=#182E3E;fontColor=default;" edge="1" parent="WIyWlLk6GJQsqaUBKTNV-1" source="3uJ8KbO14XV1aPpEETvO-48" target="WIyWlLk6GJQsqaUBKTNV-12">
          <mxGeometry relative="1" as="geometry" />
        </mxCell>
        <mxCell id="3uJ8KbO14XV1aPpEETvO-48" value="correo" style="ellipse;whiteSpace=wrap;html=1;align=center;labelBackgroundColor=none;fillColor=#56517E;strokeColor=#EEEEEE;fontColor=#FFFFFF;" vertex="1" parent="WIyWlLk6GJQsqaUBKTNV-1">
          <mxGeometry x="820" y="1169" width="100" height="40" as="geometry" />
        </mxCell>
        <mxCell id="ZWMSjb_5BoOZGEWxqf8j-11" style="rounded=0;orthogonalLoop=1;jettySize=auto;html=1;endArrow=none;endFill=0;entryX=0.5;entryY=0;entryDx=0;entryDy=0;labelBackgroundColor=none;strokeColor=#182E3E;fontColor=default;exitX=0.5;exitY=1;exitDx=0;exitDy=0;" edge="1" parent="WIyWlLk6GJQsqaUBKTNV-1" source="ZWMSjb_5BoOZGEWxqf8j-10" target="WIyWlLk6GJQsqaUBKTNV-7">
          <mxGeometry relative="1" as="geometry">
            <mxPoint x="-397.5" y="-80" as="sourcePoint" />
          </mxGeometry>
        </mxCell>
        <mxCell id="3uJ8KbO14XV1aPpEETvO-50" value="Lugares" style="rounded=0;whiteSpace=wrap;html=1;fontSize=12;glass=0;strokeWidth=1;shadow=0;labelBackgroundColor=none;fillColor=#56517E;strokeColor=#EEEEEE;fontColor=#FFFFFF;" vertex="1" parent="WIyWlLk6GJQsqaUBKTNV-1">
          <mxGeometry x="-345" y="-460" width="103" height="30" as="geometry" />
        </mxCell>
        <mxCell id="3uJ8KbO14XV1aPpEETvO-52" style="rounded=0;orthogonalLoop=1;jettySize=auto;html=1;exitX=0;exitY=1;exitDx=0;exitDy=0;entryX=1;entryY=0.5;entryDx=0;entryDy=0;endArrow=none;endFill=0;labelBackgroundColor=none;strokeColor=#182E3E;fontColor=default;" edge="1" parent="WIyWlLk6GJQsqaUBKTNV-1" source="3uJ8KbO14XV1aPpEETvO-51" target="WIyWlLk6GJQsqaUBKTNV-12">
          <mxGeometry relative="1" as="geometry" />
        </mxCell>
        <mxCell id="3uJ8KbO14XV1aPpEETvO-51" value="nombre" style="ellipse;whiteSpace=wrap;html=1;align=center;labelBackgroundColor=none;fillColor=#56517E;strokeColor=#EEEEEE;fontColor=#FFFFFF;" vertex="1" parent="WIyWlLk6GJQsqaUBKTNV-1">
          <mxGeometry x="820" y="1260" width="100" height="40" as="geometry" />
        </mxCell>
        <mxCell id="3uJ8KbO14XV1aPpEETvO-55" style="rounded=0;orthogonalLoop=1;jettySize=auto;html=1;exitX=0.5;exitY=1;exitDx=0;exitDy=0;entryX=0.25;entryY=0;entryDx=0;entryDy=0;endArrow=none;endFill=0;labelBackgroundColor=none;strokeColor=#182E3E;fontColor=default;" edge="1" parent="WIyWlLk6GJQsqaUBKTNV-1" source="3uJ8KbO14XV1aPpEETvO-53" target="3uJ8KbO14XV1aPpEETvO-14">
          <mxGeometry relative="1" as="geometry" />
        </mxCell>
        <mxCell id="3uJ8KbO14XV1aPpEETvO-53" value="idTipo" style="ellipse;whiteSpace=wrap;html=1;align=center;fontStyle=4;labelBackgroundColor=none;fillColor=#56517E;strokeColor=#EEEEEE;fontColor=#FFFFFF;" vertex="1" parent="WIyWlLk6GJQsqaUBKTNV-1">
          <mxGeometry x="-1320" y="286" width="100" height="40" as="geometry" />
        </mxCell>
        <mxCell id="3uJ8KbO14XV1aPpEETvO-56" style="rounded=0;orthogonalLoop=1;jettySize=auto;html=1;exitX=0.5;exitY=1;exitDx=0;exitDy=0;entryX=0.75;entryY=0;entryDx=0;entryDy=0;endArrow=none;endFill=0;labelBackgroundColor=none;strokeColor=#182E3E;fontColor=default;" edge="1" parent="WIyWlLk6GJQsqaUBKTNV-1" source="3uJ8KbO14XV1aPpEETvO-54" target="3uJ8KbO14XV1aPpEETvO-14">
          <mxGeometry relative="1" as="geometry" />
        </mxCell>
        <mxCell id="3uJ8KbO14XV1aPpEETvO-54" value="descripciónEquipo" style="ellipse;whiteSpace=wrap;html=1;align=center;labelBackgroundColor=none;fillColor=#56517E;strokeColor=#EEEEEE;fontColor=#FFFFFF;" vertex="1" parent="WIyWlLk6GJQsqaUBKTNV-1">
          <mxGeometry x="-1190" y="286" width="100" height="40" as="geometry" />
        </mxCell>
        <mxCell id="ZWMSjb_5BoOZGEWxqf8j-5" style="rounded=0;orthogonalLoop=1;jettySize=auto;html=1;entryX=1;entryY=0.5;entryDx=0;entryDy=0;endArrow=none;endFill=0;labelBackgroundColor=none;strokeColor=#182E3E;fontColor=default;" edge="1" parent="WIyWlLk6GJQsqaUBKTNV-1" source="ZWMSjb_5BoOZGEWxqf8j-3" target="3uJ8KbO14XV1aPpEETvO-15">
          <mxGeometry relative="1" as="geometry" />
        </mxCell>
        <mxCell id="ZWMSjb_5BoOZGEWxqf8j-3" value="fecha" style="ellipse;whiteSpace=wrap;html=1;align=center;labelBackgroundColor=none;fillColor=#56517E;strokeColor=#EEEEEE;fontColor=#FFFFFF;" vertex="1" parent="WIyWlLk6GJQsqaUBKTNV-1">
          <mxGeometry x="650" y="720" width="100" height="40" as="geometry" />
        </mxCell>
        <mxCell id="ZWMSjb_5BoOZGEWxqf8j-7" style="rounded=0;orthogonalLoop=1;jettySize=auto;html=1;entryX=0;entryY=0;entryDx=0;entryDy=0;endArrow=none;endFill=0;labelBackgroundColor=none;strokeColor=#182E3E;fontColor=default;" edge="1" parent="WIyWlLk6GJQsqaUBKTNV-1" source="ZWMSjb_5BoOZGEWxqf8j-6" target="3uJ8KbO14XV1aPpEETvO-15">
          <mxGeometry relative="1" as="geometry" />
        </mxCell>
        <mxCell id="ZWMSjb_5BoOZGEWxqf8j-6" value="estado" style="ellipse;whiteSpace=wrap;html=1;align=center;labelBackgroundColor=none;fillColor=#56517E;strokeColor=#EEEEEE;fontColor=#FFFFFF;" vertex="1" parent="WIyWlLk6GJQsqaUBKTNV-1">
          <mxGeometry x="353" y="655" width="100" height="40" as="geometry" />
        </mxCell>
        <mxCell id="0LzQlJv-D6ySPSGVPF1X-2" style="rounded=0;orthogonalLoop=1;jettySize=auto;html=1;exitX=0;exitY=0.5;exitDx=0;exitDy=0;entryX=1;entryY=0.5;entryDx=0;entryDy=0;endArrow=none;endFill=0;" edge="1" parent="WIyWlLk6GJQsqaUBKTNV-1" source="2T5H_hkiswAVR6A3PdZY-0" target="ZWMSjb_5BoOZGEWxqf8j-10">
          <mxGeometry relative="1" as="geometry" />
        </mxCell>
        <mxCell id="NhlgGVuQGpp-WLmPG3e8-1" style="rounded=0;orthogonalLoop=1;jettySize=auto;html=1;exitX=1;exitY=0.5;exitDx=0;exitDy=0;entryX=0;entryY=0.5;entryDx=0;entryDy=0;endArrow=none;endFill=0;" edge="1" parent="WIyWlLk6GJQsqaUBKTNV-1" source="2T5H_hkiswAVR6A3PdZY-0" target="NhlgGVuQGpp-WLmPG3e8-0">
          <mxGeometry relative="1" as="geometry" />
        </mxCell>
        <mxCell id="2T5H_hkiswAVR6A3PdZY-0" value="Componentes" style="rounded=0;whiteSpace=wrap;html=1;fontSize=12;glass=0;strokeWidth=1;shadow=0;labelBackgroundColor=none;fillColor=#56517E;strokeColor=#EEEEEE;fontColor=#FFFFFF;" vertex="1" parent="WIyWlLk6GJQsqaUBKTNV-1">
          <mxGeometry x="3" y="-55" width="103" height="30" as="geometry" />
        </mxCell>
        <mxCell id="2T5H_hkiswAVR6A3PdZY-7" style="rounded=0;orthogonalLoop=1;jettySize=auto;html=1;exitX=0;exitY=1;exitDx=0;exitDy=0;entryX=1;entryY=0;entryDx=0;entryDy=0;endArrow=none;endFill=0;labelBackgroundColor=none;strokeColor=#182E3E;fontColor=default;" edge="1" parent="WIyWlLk6GJQsqaUBKTNV-1" source="2T5H_hkiswAVR6A3PdZY-6" target="3uJ8KbO14XV1aPpEETvO-15">
          <mxGeometry relative="1" as="geometry" />
        </mxCell>
        <mxCell id="2T5H_hkiswAVR6A3PdZY-6" value="descripcionDetalle" style="ellipse;whiteSpace=wrap;html=1;align=center;labelBackgroundColor=none;fillColor=#56517E;strokeColor=#EEEEEE;fontColor=#FFFFFF;" vertex="1" parent="WIyWlLk6GJQsqaUBKTNV-1">
          <mxGeometry x="633" y="650" width="100" height="40" as="geometry" />
        </mxCell>
        <mxCell id="vldh3vrHryc6X6decwte-2" style="rounded=0;orthogonalLoop=1;jettySize=auto;html=1;entryX=0;entryY=0;entryDx=0;entryDy=0;endArrow=none;endFill=0;" edge="1" parent="WIyWlLk6GJQsqaUBKTNV-1" source="2T5H_hkiswAVR6A3PdZY-8" target="3uJ8KbO14XV1aPpEETvO-50">
          <mxGeometry relative="1" as="geometry" />
        </mxCell>
        <mxCell id="2T5H_hkiswAVR6A3PdZY-8" value="idLugar" style="ellipse;whiteSpace=wrap;html=1;align=center;fontStyle=4;labelBackgroundColor=none;fillColor=#56517E;strokeColor=#EEEEEE;fontColor=#FFFFFF;" vertex="1" parent="WIyWlLk6GJQsqaUBKTNV-1">
          <mxGeometry x="-463" y="-530" width="100" height="40" as="geometry" />
        </mxCell>
        <mxCell id="vldh3vrHryc6X6decwte-1" style="rounded=0;orthogonalLoop=1;jettySize=auto;html=1;entryX=0.75;entryY=0;entryDx=0;entryDy=0;endArrow=none;endFill=0;exitX=0;exitY=1;exitDx=0;exitDy=0;" edge="1" parent="WIyWlLk6GJQsqaUBKTNV-1" source="2T5H_hkiswAVR6A3PdZY-9" target="3uJ8KbO14XV1aPpEETvO-50">
          <mxGeometry relative="1" as="geometry">
            <mxPoint x="-232.99867367237175" y="-510.687684829619" as="sourcePoint" />
          </mxGeometry>
        </mxCell>
        <mxCell id="2T5H_hkiswAVR6A3PdZY-9" value="doliente" style="ellipse;whiteSpace=wrap;html=1;align=center;labelBackgroundColor=none;fillColor=#56517E;strokeColor=#EEEEEE;fontColor=#FFFFFF;" vertex="1" parent="WIyWlLk6GJQsqaUBKTNV-1">
          <mxGeometry x="-200" y="-530" width="100" height="40" as="geometry" />
        </mxCell>
        <mxCell id="2T5H_hkiswAVR6A3PdZY-28" style="rounded=0;orthogonalLoop=1;jettySize=auto;html=1;exitX=0.5;exitY=1;exitDx=0;exitDy=0;entryX=0.25;entryY=0;entryDx=0;entryDy=0;endArrow=none;endFill=0;labelBackgroundColor=none;strokeColor=#182E3E;fontColor=default;" edge="1" parent="WIyWlLk6GJQsqaUBKTNV-1" source="2T5H_hkiswAVR6A3PdZY-12" target="3uJ8KbO14XV1aPpEETvO-13">
          <mxGeometry relative="1" as="geometry" />
        </mxCell>
        <mxCell id="2T5H_hkiswAVR6A3PdZY-12" value="idCaso" style="ellipse;whiteSpace=wrap;html=1;align=center;fontStyle=4;labelBackgroundColor=none;fillColor=#56517E;strokeColor=#EEEEEE;fontColor=#FFFFFF;" vertex="1" parent="WIyWlLk6GJQsqaUBKTNV-1">
          <mxGeometry x="370" y="279" width="100" height="40" as="geometry" />
        </mxCell>
        <mxCell id="2T5H_hkiswAVR6A3PdZY-15" value="" style="rounded=0;orthogonalLoop=1;jettySize=auto;html=1;entryX=0;entryY=0.5;entryDx=0;entryDy=0;endArrow=none;endFill=0;labelBackgroundColor=none;strokeColor=#182E3E;fontColor=default;exitX=0.5;exitY=0;exitDx=0;exitDy=0;" edge="1" parent="WIyWlLk6GJQsqaUBKTNV-1" source="WIyWlLk6GJQsqaUBKTNV-7" target="2T5H_hkiswAVR6A3PdZY-14">
          <mxGeometry relative="1" as="geometry">
            <mxPoint x="-407.5" y="-160" as="sourcePoint" />
            <mxPoint x="91.5" y="-195" as="targetPoint" />
          </mxGeometry>
        </mxCell>
        <mxCell id="2T5H_hkiswAVR6A3PdZY-14" value="Tienen" style="shape=rhombus;perimeter=rhombusPerimeter;whiteSpace=wrap;html=1;align=center;labelBackgroundColor=none;fillColor=#56517E;strokeColor=#EEEEEE;fontColor=#FFFFFF;" vertex="1" parent="WIyWlLk6GJQsqaUBKTNV-1">
          <mxGeometry x="-62.5" y="80" width="122.5" height="71" as="geometry" />
        </mxCell>
        <mxCell id="vldh3vrHryc6X6decwte-13" style="rounded=0;orthogonalLoop=1;jettySize=auto;html=1;endArrow=none;endFill=0;exitX=0.5;exitY=0;exitDx=0;exitDy=0;entryX=0.5;entryY=1;entryDx=0;entryDy=0;" edge="1" parent="WIyWlLk6GJQsqaUBKTNV-1" source="2T5H_hkiswAVR6A3PdZY-16" target="WIyWlLk6GJQsqaUBKTNV-7">
          <mxGeometry relative="1" as="geometry">
            <mxPoint x="-526.3199999999999" y="537.5" as="targetPoint" />
          </mxGeometry>
        </mxCell>
        <mxCell id="2T5H_hkiswAVR6A3PdZY-16" value="id-Equipo" style="ellipse;whiteSpace=wrap;html=1;align=center;fontStyle=4;labelBackgroundColor=none;fillColor=#56517E;strokeColor=#EEEEEE;fontColor=#FFFFFF;" vertex="1" parent="WIyWlLk6GJQsqaUBKTNV-1">
          <mxGeometry x="-70" y="530" width="100" height="40" as="geometry" />
        </mxCell>
        <mxCell id="2T5H_hkiswAVR6A3PdZY-38" style="rounded=0;orthogonalLoop=1;jettySize=auto;html=1;exitX=0.5;exitY=1;exitDx=0;exitDy=0;entryX=0.25;entryY=0;entryDx=0;entryDy=0;endArrow=none;endFill=0;labelBackgroundColor=none;strokeColor=#182E3E;fontColor=default;" edge="1" parent="WIyWlLk6GJQsqaUBKTNV-1" source="2T5H_hkiswAVR6A3PdZY-17" target="2T5H_hkiswAVR6A3PdZY-0">
          <mxGeometry relative="1" as="geometry" />
        </mxCell>
        <mxCell id="2T5H_hkiswAVR6A3PdZY-17" value="idComponente" style="ellipse;whiteSpace=wrap;html=1;align=center;fontStyle=4;labelBackgroundColor=none;fillColor=#56517E;strokeColor=#EEEEEE;fontColor=#FFFFFF;" vertex="1" parent="WIyWlLk6GJQsqaUBKTNV-1">
          <mxGeometry x="-31.5" y="-190" width="100" height="40" as="geometry" />
        </mxCell>
        <mxCell id="2T5H_hkiswAVR6A3PdZY-20" style="rounded=0;orthogonalLoop=1;jettySize=auto;html=1;exitX=0;exitY=0.5;exitDx=0;exitDy=0;entryX=1;entryY=0.5;entryDx=0;entryDy=0;endArrow=none;endFill=0;labelBackgroundColor=none;strokeColor=#182E3E;fontColor=default;" edge="1" parent="WIyWlLk6GJQsqaUBKTNV-1" source="2T5H_hkiswAVR6A3PdZY-18" target="2T5H_hkiswAVR6A3PdZY-19">
          <mxGeometry relative="1" as="geometry" />
        </mxCell>
        <mxCell id="2T5H_hkiswAVR6A3PdZY-18" value="TipoCaso" style="whiteSpace=wrap;html=1;align=center;labelBackgroundColor=none;fillColor=#56517E;strokeColor=#EEEEEE;fontColor=#FFFFFF;" vertex="1" parent="WIyWlLk6GJQsqaUBKTNV-1">
          <mxGeometry x="1420" y="349" width="100" height="30" as="geometry" />
        </mxCell>
        <mxCell id="2T5H_hkiswAVR6A3PdZY-19" value="TipoCaso" style="shape=rhombus;perimeter=rhombusPerimeter;whiteSpace=wrap;html=1;align=center;labelBackgroundColor=none;fillColor=#56517E;strokeColor=#EEEEEE;fontColor=#FFFFFF;" vertex="1" parent="WIyWlLk6GJQsqaUBKTNV-1">
          <mxGeometry x="940" y="334" width="120" height="60" as="geometry" />
        </mxCell>
        <mxCell id="2T5H_hkiswAVR6A3PdZY-26" style="rounded=0;orthogonalLoop=1;jettySize=auto;html=1;exitX=1;exitY=0.5;exitDx=0;exitDy=0;entryX=0;entryY=0;entryDx=0;entryDy=0;endArrow=none;endFill=0;labelBackgroundColor=none;strokeColor=#182E3E;fontColor=default;" edge="1" parent="WIyWlLk6GJQsqaUBKTNV-1" source="2T5H_hkiswAVR6A3PdZY-23" target="2T5H_hkiswAVR6A3PdZY-18">
          <mxGeometry relative="1" as="geometry" />
        </mxCell>
        <mxCell id="2T5H_hkiswAVR6A3PdZY-23" value="idTipo" style="ellipse;whiteSpace=wrap;html=1;align=center;fontStyle=4;labelBackgroundColor=none;fillColor=#56517E;strokeColor=#EEEEEE;fontColor=#FFFFFF;" vertex="1" parent="WIyWlLk6GJQsqaUBKTNV-1">
          <mxGeometry x="1320" y="270" width="100" height="40" as="geometry" />
        </mxCell>
        <mxCell id="2T5H_hkiswAVR6A3PdZY-27" style="rounded=0;orthogonalLoop=1;jettySize=auto;html=1;exitX=0;exitY=0.5;exitDx=0;exitDy=0;entryX=1;entryY=0;entryDx=0;entryDy=0;endArrow=none;endFill=0;labelBackgroundColor=none;strokeColor=#182E3E;fontColor=default;" edge="1" parent="WIyWlLk6GJQsqaUBKTNV-1" source="2T5H_hkiswAVR6A3PdZY-24" target="2T5H_hkiswAVR6A3PdZY-18">
          <mxGeometry relative="1" as="geometry" />
        </mxCell>
        <mxCell id="2T5H_hkiswAVR6A3PdZY-24" value="descripcionCaso" style="ellipse;whiteSpace=wrap;html=1;align=center;labelBackgroundColor=none;fillColor=#56517E;strokeColor=#EEEEEE;fontColor=#FFFFFF;" vertex="1" parent="WIyWlLk6GJQsqaUBKTNV-1">
          <mxGeometry x="1520" y="270" width="100" height="40" as="geometry" />
        </mxCell>
        <mxCell id="2T5H_hkiswAVR6A3PdZY-30" style="rounded=0;orthogonalLoop=1;jettySize=auto;html=1;exitX=0.5;exitY=1;exitDx=0;exitDy=0;entryX=0.25;entryY=0;entryDx=0;entryDy=0;endArrow=none;endFill=0;labelBackgroundColor=none;strokeColor=#182E3E;fontColor=default;" edge="1" parent="WIyWlLk6GJQsqaUBKTNV-1" source="2T5H_hkiswAVR6A3PdZY-29" target="3uJ8KbO14XV1aPpEETvO-13">
          <mxGeometry relative="1" as="geometry" />
        </mxCell>
        <mxCell id="2T5H_hkiswAVR6A3PdZY-29" value="idEquipo" style="ellipse;whiteSpace=wrap;html=1;align=center;labelBackgroundColor=none;fillColor=#56517E;strokeColor=#EEEEEE;fontColor=#FFFFFF;" vertex="1" parent="WIyWlLk6GJQsqaUBKTNV-1">
          <mxGeometry x="430" y="239" width="100" height="40" as="geometry" />
        </mxCell>
        <mxCell id="2T5H_hkiswAVR6A3PdZY-31" value="N : 1" style="text;strokeColor=none;fillColor=none;spacingLeft=4;spacingRight=4;overflow=hidden;rotatable=0;points=[[0,0.5],[1,0.5]];portConstraint=eastwest;fontSize=12;whiteSpace=wrap;html=1;labelBackgroundColor=none;fontColor=#FFFFFF;" vertex="1" parent="WIyWlLk6GJQsqaUBKTNV-1">
          <mxGeometry x="-60" y="-80" width="40" height="30" as="geometry" />
        </mxCell>
        <mxCell id="2T5H_hkiswAVR6A3PdZY-32" value="1 : N" style="text;strokeColor=none;fillColor=none;spacingLeft=4;spacingRight=4;overflow=hidden;rotatable=0;points=[[0,0.5],[1,0.5]];portConstraint=eastwest;fontSize=12;whiteSpace=wrap;html=1;labelBackgroundColor=none;fontColor=#FFFFFF;" vertex="1" parent="WIyWlLk6GJQsqaUBKTNV-1">
          <mxGeometry x="-225" y="330" width="40" height="30" as="geometry" />
        </mxCell>
        <mxCell id="2T5H_hkiswAVR6A3PdZY-33" value="1 : N" style="text;strokeColor=none;fillColor=none;spacingLeft=4;spacingRight=4;overflow=hidden;rotatable=0;points=[[0,0.5],[1,0.5]];portConstraint=eastwest;fontSize=12;whiteSpace=wrap;html=1;labelBackgroundColor=none;fontColor=#FFFFFF;" vertex="1" parent="WIyWlLk6GJQsqaUBKTNV-1">
          <mxGeometry x="-337.5" y="-260" width="40" height="30" as="geometry" />
        </mxCell>
        <mxCell id="2T5H_hkiswAVR6A3PdZY-35" value="1 : 1" style="text;strokeColor=none;fillColor=none;spacingLeft=4;spacingRight=4;overflow=hidden;rotatable=0;points=[[0,0.5],[1,0.5]];portConstraint=eastwest;fontSize=12;whiteSpace=wrap;html=1;labelBackgroundColor=none;fontColor=#FFFFFF;" vertex="1" parent="WIyWlLk6GJQsqaUBKTNV-1">
          <mxGeometry x="-320" y="725" width="40" height="30" as="geometry" />
        </mxCell>
        <mxCell id="2T5H_hkiswAVR6A3PdZY-37" value="1 : 1" style="text;strokeColor=none;fillColor=none;spacingLeft=4;spacingRight=4;overflow=hidden;rotatable=0;points=[[0,0.5],[1,0.5]];portConstraint=eastwest;fontSize=12;whiteSpace=wrap;html=1;labelBackgroundColor=none;fontColor=#FFFFFF;" vertex="1" parent="WIyWlLk6GJQsqaUBKTNV-1">
          <mxGeometry x="-1.5" y="-15" width="40" height="30" as="geometry" />
        </mxCell>
        <mxCell id="Cb_l33F3aEi2Uz8gXYHJ-1" style="rounded=0;orthogonalLoop=1;jettySize=auto;html=1;exitX=0.5;exitY=1;exitDx=0;exitDy=0;endArrow=none;endFill=0;entryX=0.5;entryY=0;entryDx=0;entryDy=0;" edge="1" parent="WIyWlLk6GJQsqaUBKTNV-1" source="EHw-qd7V3THNP2IJrnIF-0" target="EHw-qd7V3THNP2IJrnIF-1">
          <mxGeometry relative="1" as="geometry">
            <mxPoint x="-130" y="1130" as="targetPoint" />
          </mxGeometry>
        </mxCell>
        <mxCell id="Cb_l33F3aEi2Uz8gXYHJ-47" style="rounded=0;orthogonalLoop=1;jettySize=auto;html=1;exitX=0.5;exitY=1;exitDx=0;exitDy=0;entryX=0.5;entryY=0;entryDx=0;entryDy=0;endArrow=none;endFill=0;" edge="1" parent="WIyWlLk6GJQsqaUBKTNV-1" source="Cb_l33F3aEi2Uz8gXYHJ-48" target="2T5H_hkiswAVR6A3PdZY-18">
          <mxGeometry relative="1" as="geometry" />
        </mxCell>
        <mxCell id="EHw-qd7V3THNP2IJrnIF-0" value="PrioridadU" style="rounded=0;whiteSpace=wrap;html=1;fontSize=12;glass=0;strokeWidth=1;shadow=0;labelBackgroundColor=none;fillColor=#56517E;strokeColor=#EEEEEE;fontColor=#FFFFFF;" vertex="1" parent="WIyWlLk6GJQsqaUBKTNV-1">
          <mxGeometry x="-310" y="890" width="120" height="30" as="geometry" />
        </mxCell>
        <mxCell id="EHw-qd7V3THNP2IJrnIF-1" value="PrioridadUsuario" style="rhombus;whiteSpace=wrap;html=1;shadow=0;fontFamily=Helvetica;fontSize=12;align=center;strokeWidth=1;spacing=6;spacingTop=-4;labelBackgroundColor=none;fillColor=#56517E;strokeColor=#EEEEEE;fontColor=#FFFFFF;" vertex="1" parent="WIyWlLk6GJQsqaUBKTNV-1">
          <mxGeometry x="-300" y="1257.5" width="100" height="80" as="geometry" />
        </mxCell>
        <mxCell id="Cb_l33F3aEi2Uz8gXYHJ-3" value="1 : N" style="text;strokeColor=none;fillColor=none;spacingLeft=4;spacingRight=4;overflow=hidden;rotatable=0;points=[[0,0.5],[1,0.5]];portConstraint=eastwest;fontSize=12;whiteSpace=wrap;html=1;" vertex="1" parent="WIyWlLk6GJQsqaUBKTNV-1">
          <mxGeometry x="546" y="1740" width="40" height="30" as="geometry" />
        </mxCell>
        <mxCell id="Cb_l33F3aEi2Uz8gXYHJ-4" value="N : 1" style="text;strokeColor=none;fillColor=none;spacingLeft=4;spacingRight=4;overflow=hidden;rotatable=0;points=[[0,0.5],[1,0.5]];portConstraint=eastwest;fontSize=12;whiteSpace=wrap;html=1;" vertex="1" parent="WIyWlLk6GJQsqaUBKTNV-1">
          <mxGeometry x="563" y="1312.5" width="40" height="30" as="geometry" />
        </mxCell>
        <mxCell id="Cb_l33F3aEi2Uz8gXYHJ-5" value="1 : N" style="text;strokeColor=none;fillColor=none;spacingLeft=4;spacingRight=4;overflow=hidden;rotatable=0;points=[[0,0.5],[1,0.5]];portConstraint=eastwest;fontSize=12;whiteSpace=wrap;html=1;" vertex="1" parent="WIyWlLk6GJQsqaUBKTNV-1">
          <mxGeometry x="586" y="1535" width="40" height="30" as="geometry" />
        </mxCell>
        <mxCell id="Cb_l33F3aEi2Uz8gXYHJ-7" value="N : N" style="text;strokeColor=none;fillColor=none;spacingLeft=4;spacingRight=4;overflow=hidden;rotatable=0;points=[[0,0.5],[1,0.5]];portConstraint=eastwest;fontSize=12;whiteSpace=wrap;html=1;" vertex="1" parent="WIyWlLk6GJQsqaUBKTNV-1">
          <mxGeometry x="397" y="710" width="40" height="30" as="geometry" />
        </mxCell>
        <mxCell id="Cb_l33F3aEi2Uz8gXYHJ-8" value="1 : N" style="text;strokeColor=none;fillColor=none;spacingLeft=4;spacingRight=4;overflow=hidden;rotatable=0;points=[[0,0.5],[1,0.5]];portConstraint=eastwest;fontSize=12;whiteSpace=wrap;html=1;" vertex="1" parent="WIyWlLk6GJQsqaUBKTNV-1">
          <mxGeometry x="480" y="390" width="40" height="30" as="geometry" />
        </mxCell>
        <mxCell id="Cb_l33F3aEi2Uz8gXYHJ-9" value="N : 1" style="text;strokeColor=none;fillColor=none;spacingLeft=4;spacingRight=4;overflow=hidden;rotatable=0;points=[[0,0.5],[1,0.5]];portConstraint=eastwest;fontSize=12;whiteSpace=wrap;html=1;" vertex="1" parent="WIyWlLk6GJQsqaUBKTNV-1">
          <mxGeometry x="593" y="329" width="40" height="30" as="geometry" />
        </mxCell>
        <mxCell id="Cb_l33F3aEi2Uz8gXYHJ-10" value="N : 1" style="text;strokeColor=none;fillColor=none;spacingLeft=4;spacingRight=4;overflow=hidden;rotatable=0;points=[[0,0.5],[1,0.5]];portConstraint=eastwest;fontSize=12;whiteSpace=wrap;html=1;" vertex="1" parent="WIyWlLk6GJQsqaUBKTNV-1">
          <mxGeometry x="980" y="299" width="40" height="30" as="geometry" />
        </mxCell>
        <mxCell id="Cb_l33F3aEi2Uz8gXYHJ-11" value="1 : N&lt;span style=&quot;color: rgba(0, 0, 0, 0); font-family: monospace; font-size: 0px; text-wrap: nowrap;&quot;&gt;%3CmxGraphModel%3E%3Croot%3E%3CmxCell%20id%3D%220%22%2F%3E%3CmxCell%20id%3D%221%22%20parent%3D%220%22%2F%3E%3CmxCell%20id%3D%222%22%20value%3D%22N%20%3A%201%22%20style%3D%22text%3BstrokeColor%3Dnone%3BfillColor%3Dnone%3BspacingLeft%3D4%3BspacingRight%3D4%3Boverflow%3Dhidden%3Brotatable%3D0%3Bpoints%3D%5B%5B0%2C0.5%5D%2C%5B1%2C0.5%5D%5D%3BportConstraint%3Deastwest%3BfontSize%3D12%3BwhiteSpace%3Dwrap%3Bhtml%3D1%3B%22%20vertex%3D%221%22%20parent%3D%221%22%3E%3CmxGeometry%20x%3D%22980%22%20y%3D%22299%22%20width%3D%2240%22%20height%3D%2230%22%20as%3D%22geometry%22%2F%3E%3C%2FmxCell%3E%3C%2Froot%3E%3C%2FmxGraphModel%3E&lt;/span&gt;&lt;span style=&quot;color: rgba(0, 0, 0, 0); font-family: monospace; font-size: 0px; text-wrap: nowrap;&quot;&gt;%3CmxGraphModel%3E%3Croot%3E%3CmxCell%20id%3D%220%22%2F%3E%3CmxCell%20id%3D%221%22%20parent%3D%220%22%2F%3E%3CmxCell%20id%3D%222%22%20value%3D%22N%20%3A%201%22%20style%3D%22text%3BstrokeColor%3Dnone%3BfillColor%3Dnone%3BspacingLeft%3D4%3BspacingRight%3D4%3Boverflow%3Dhidden%3Brotatable%3D0%3Bpoints%3D%5B%5B0%2C0.5%5D%2C%5B1%2C0.5%5D%5D%3BportConstraint%3Deastwest%3BfontSize%3D12%3BwhiteSpace%3Dwrap%3Bhtml%3D1%3B%22%20vertex%3D%221%22%20parent%3D%221%22%3E%3CmxGeometry%20x%3D%22980%22%20y%3D%22299%22%20width%3D%2240%22%20height%3D%2230%22%20as%3D%22geometry%22%2F%3E%3C%2FmxCell%3E%3C%2Froot%3E%3C%2FmxGraphModel%3E&lt;/span&gt;" style="text;strokeColor=none;fillColor=none;spacingLeft=4;spacingRight=4;overflow=hidden;rotatable=0;points=[[0,0.5],[1,0.5]];portConstraint=eastwest;fontSize=12;whiteSpace=wrap;html=1;" vertex="1" parent="WIyWlLk6GJQsqaUBKTNV-1">
          <mxGeometry x="1370" y="330" width="40" height="30" as="geometry" />
        </mxCell>
        <mxCell id="Cb_l33F3aEi2Uz8gXYHJ-12" value="N : 1" style="text;strokeColor=none;fillColor=none;spacingLeft=4;spacingRight=4;overflow=hidden;rotatable=0;points=[[0,0.5],[1,0.5]];portConstraint=eastwest;fontSize=12;whiteSpace=wrap;html=1;" vertex="1" parent="WIyWlLk6GJQsqaUBKTNV-1">
          <mxGeometry x="413" y="334" width="40" height="30" as="geometry" />
        </mxCell>
        <mxCell id="Cb_l33F3aEi2Uz8gXYHJ-14" value="1 : N" style="text;strokeColor=none;fillColor=none;spacingLeft=4;spacingRight=4;overflow=hidden;rotatable=0;points=[[0,0.5],[1,0.5]];portConstraint=eastwest;fontSize=12;whiteSpace=wrap;html=1;" vertex="1" parent="WIyWlLk6GJQsqaUBKTNV-1">
          <mxGeometry x="100" y="289" width="40" height="30" as="geometry" />
        </mxCell>
        <mxCell id="Cb_l33F3aEi2Uz8gXYHJ-16" value="N : 1" style="text;strokeColor=none;fillColor=none;spacingLeft=4;spacingRight=4;overflow=hidden;rotatable=0;points=[[0,0.5],[1,0.5]];portConstraint=eastwest;fontSize=12;whiteSpace=wrap;html=1;" vertex="1" parent="WIyWlLk6GJQsqaUBKTNV-1">
          <mxGeometry x="-10" y="-20" width="40" height="30" as="geometry" />
        </mxCell>
        <mxCell id="Cb_l33F3aEi2Uz8gXYHJ-18" value="1 : N" style="text;strokeColor=none;fillColor=none;spacingLeft=4;spacingRight=4;overflow=hidden;rotatable=0;points=[[0,0.5],[1,0.5]];portConstraint=eastwest;fontSize=12;whiteSpace=wrap;html=1;" vertex="1" parent="WIyWlLk6GJQsqaUBKTNV-1">
          <mxGeometry x="-210" y="339" width="40" height="30" as="geometry" />
        </mxCell>
        <mxCell id="Cb_l33F3aEi2Uz8gXYHJ-19" value="N : 1" style="text;strokeColor=none;fillColor=none;spacingLeft=4;spacingRight=4;overflow=hidden;rotatable=0;points=[[0,0.5],[1,0.5]];portConstraint=eastwest;fontSize=12;whiteSpace=wrap;html=1;" vertex="1" parent="WIyWlLk6GJQsqaUBKTNV-1">
          <mxGeometry x="-50" y="-75" width="40" height="30" as="geometry" />
        </mxCell>
        <mxCell id="Cb_l33F3aEi2Uz8gXYHJ-23" value="1 : N" style="text;strokeColor=none;fillColor=none;spacingLeft=4;spacingRight=4;overflow=hidden;rotatable=0;points=[[0,0.5],[1,0.5]];portConstraint=eastwest;fontSize=12;whiteSpace=wrap;html=1;" vertex="1" parent="WIyWlLk6GJQsqaUBKTNV-1">
          <mxGeometry x="-1140" y="336" width="40" height="30" as="geometry" />
        </mxCell>
        <mxCell id="Cb_l33F3aEi2Uz8gXYHJ-24" value="1 : N" style="text;strokeColor=none;fillColor=none;spacingLeft=4;spacingRight=4;overflow=hidden;rotatable=0;points=[[0,0.5],[1,0.5]];portConstraint=eastwest;fontSize=12;whiteSpace=wrap;html=1;" vertex="1" parent="WIyWlLk6GJQsqaUBKTNV-1">
          <mxGeometry x="-765" y="299" width="40" height="30" as="geometry" />
        </mxCell>
        <mxCell id="Cb_l33F3aEi2Uz8gXYHJ-25" value="N : 1" style="text;strokeColor=none;fillColor=none;spacingLeft=4;spacingRight=4;overflow=hidden;rotatable=0;points=[[0,0.5],[1,0.5]];portConstraint=eastwest;fontSize=12;whiteSpace=wrap;html=1;" vertex="1" parent="WIyWlLk6GJQsqaUBKTNV-1">
          <mxGeometry x="407" y="1270" width="40" height="30" as="geometry" />
        </mxCell>
        <mxCell id="Cb_l33F3aEi2Uz8gXYHJ-26" value="1 : N" style="text;strokeColor=none;fillColor=none;spacingLeft=4;spacingRight=4;overflow=hidden;rotatable=0;points=[[0,0.5],[1,0.5]];portConstraint=eastwest;fontSize=12;whiteSpace=wrap;html=1;" vertex="1" parent="WIyWlLk6GJQsqaUBKTNV-1">
          <mxGeometry x="-230" y="930" width="40" height="30" as="geometry" />
        </mxCell>
        <mxCell id="Cb_l33F3aEi2Uz8gXYHJ-27" value="1 : N" style="text;strokeColor=none;fillColor=none;spacingLeft=4;spacingRight=4;overflow=hidden;rotatable=0;points=[[0,0.5],[1,0.5]];portConstraint=eastwest;fontSize=12;whiteSpace=wrap;html=1;" vertex="1" parent="WIyWlLk6GJQsqaUBKTNV-1">
          <mxGeometry x="-200" y="1260" width="40" height="30" as="geometry" />
        </mxCell>
        <mxCell id="Cb_l33F3aEi2Uz8gXYHJ-32" style="rounded=0;orthogonalLoop=1;jettySize=auto;html=1;exitX=1;exitY=0.5;exitDx=0;exitDy=0;entryX=0;entryY=0.5;entryDx=0;entryDy=0;endArrow=none;endFill=0;" edge="1" parent="WIyWlLk6GJQsqaUBKTNV-1" source="Cb_l33F3aEi2Uz8gXYHJ-28" target="EHw-qd7V3THNP2IJrnIF-0">
          <mxGeometry relative="1" as="geometry" />
        </mxCell>
        <mxCell id="Cb_l33F3aEi2Uz8gXYHJ-28" value="idPrioridadU" style="ellipse;whiteSpace=wrap;html=1;align=center;fontStyle=4;labelBackgroundColor=none;fillColor=#56517E;strokeColor=#EEEEEE;fontColor=#FFFFFF;" vertex="1" parent="WIyWlLk6GJQsqaUBKTNV-1">
          <mxGeometry x="-520" y="950" width="100" height="40" as="geometry" />
        </mxCell>
        <mxCell id="Cb_l33F3aEi2Uz8gXYHJ-33" style="rounded=0;orthogonalLoop=1;jettySize=auto;html=1;exitX=1;exitY=0.5;exitDx=0;exitDy=0;entryX=0;entryY=0;entryDx=0;entryDy=0;endArrow=none;endFill=0;" edge="1" parent="WIyWlLk6GJQsqaUBKTNV-1" source="Cb_l33F3aEi2Uz8gXYHJ-31" target="EHw-qd7V3THNP2IJrnIF-0">
          <mxGeometry relative="1" as="geometry">
            <Array as="points" />
          </mxGeometry>
        </mxCell>
        <mxCell id="Cb_l33F3aEi2Uz8gXYHJ-31" value="nivel" style="ellipse;whiteSpace=wrap;html=1;align=center;labelBackgroundColor=none;fillColor=#56517E;strokeColor=#EEEEEE;fontColor=#FFFFFF;" vertex="1" parent="WIyWlLk6GJQsqaUBKTNV-1">
          <mxGeometry x="-520" y="835" width="100" height="40" as="geometry" />
        </mxCell>
        <mxCell id="vldh3vrHryc6X6decwte-25" style="rounded=0;orthogonalLoop=1;jettySize=auto;html=1;entryX=0.5;entryY=1;entryDx=0;entryDy=0;endArrow=none;endFill=0;" edge="1" parent="WIyWlLk6GJQsqaUBKTNV-1" source="Cb_l33F3aEi2Uz8gXYHJ-39" target="WIyWlLk6GJQsqaUBKTNV-7">
          <mxGeometry relative="1" as="geometry" />
        </mxCell>
        <mxCell id="Cb_l33F3aEi2Uz8gXYHJ-39" value="ram" style="ellipse;whiteSpace=wrap;html=1;align=center;fillColor=#76608a;fontColor=#ffffff;strokeColor=#432D57;" vertex="1" parent="WIyWlLk6GJQsqaUBKTNV-1">
          <mxGeometry x="-520" y="615" width="100" height="40" as="geometry" />
        </mxCell>
        <mxCell id="vldh3vrHryc6X6decwte-26" style="edgeStyle=none;rounded=0;orthogonalLoop=1;jettySize=auto;html=1;strokeColor=default;align=center;verticalAlign=middle;fontFamily=Helvetica;fontSize=11;fontColor=default;labelBackgroundColor=default;endArrow=none;endFill=0;entryX=0;entryY=1;entryDx=0;entryDy=0;" edge="1" parent="WIyWlLk6GJQsqaUBKTNV-1" source="Cb_l33F3aEi2Uz8gXYHJ-40" target="WIyWlLk6GJQsqaUBKTNV-7">
          <mxGeometry relative="1" as="geometry" />
        </mxCell>
        <mxCell id="Cb_l33F3aEi2Uz8gXYHJ-40" value="serialPlaca" style="ellipse;whiteSpace=wrap;html=1;align=center;fillColor=#76608a;fontColor=#ffffff;strokeColor=#432D57;" vertex="1" parent="WIyWlLk6GJQsqaUBKTNV-1">
          <mxGeometry x="-725" y="430" width="100" height="40" as="geometry" />
        </mxCell>
        <mxCell id="vldh3vrHryc6X6decwte-27" style="edgeStyle=none;rounded=0;orthogonalLoop=1;jettySize=auto;html=1;entryX=0;entryY=0.75;entryDx=0;entryDy=0;strokeColor=default;align=center;verticalAlign=middle;fontFamily=Helvetica;fontSize=11;fontColor=default;labelBackgroundColor=default;endArrow=none;endFill=0;" edge="1" parent="WIyWlLk6GJQsqaUBKTNV-1" source="Cb_l33F3aEi2Uz8gXYHJ-41" target="WIyWlLk6GJQsqaUBKTNV-7">
          <mxGeometry relative="1" as="geometry" />
        </mxCell>
        <mxCell id="Cb_l33F3aEi2Uz8gXYHJ-41" value="procesador" style="ellipse;whiteSpace=wrap;html=1;align=center;fillColor=#76608a;fontColor=#ffffff;strokeColor=#432D57;gradientColor=none;" vertex="1" parent="WIyWlLk6GJQsqaUBKTNV-1">
          <mxGeometry x="-710" y="375" width="100" height="40" as="geometry" />
        </mxCell>
        <mxCell id="vldh3vrHryc6X6decwte-8" style="rounded=0;orthogonalLoop=1;jettySize=auto;html=1;entryX=0.75;entryY=1;entryDx=0;entryDy=0;endArrow=none;endFill=0;" edge="1" parent="WIyWlLk6GJQsqaUBKTNV-1" source="Cb_l33F3aEi2Uz8gXYHJ-68" target="WIyWlLk6GJQsqaUBKTNV-7">
          <mxGeometry relative="1" as="geometry" />
        </mxCell>
        <mxCell id="Cb_l33F3aEi2Uz8gXYHJ-68" value="idTipo" style="ellipse;whiteSpace=wrap;html=1;align=center;fillColor=#76608a;fontColor=#ffffff;strokeColor=#432D57;" vertex="1" parent="WIyWlLk6GJQsqaUBKTNV-1">
          <mxGeometry x="-31.5" y="369" width="100" height="40" as="geometry" />
        </mxCell>
        <mxCell id="Cb_l33F3aEi2Uz8gXYHJ-43" value="tipoContrato" style="ellipse;whiteSpace=wrap;html=1;align=center;fillColor=#76608a;strokeColor=#432D57;fontColor=#ffffff;" vertex="1" parent="WIyWlLk6GJQsqaUBKTNV-1">
          <mxGeometry x="760" y="1089" width="100" height="40" as="geometry" />
        </mxCell>
        <mxCell id="Cb_l33F3aEi2Uz8gXYHJ-71" style="rounded=0;orthogonalLoop=1;jettySize=auto;html=1;exitX=0;exitY=1;exitDx=0;exitDy=0;entryX=0.75;entryY=0;entryDx=0;entryDy=0;endArrow=none;endFill=0;fillColor=#76608a;strokeColor=#432D57;" edge="1" parent="WIyWlLk6GJQsqaUBKTNV-1" source="Cb_l33F3aEi2Uz8gXYHJ-70" target="3uJ8KbO14XV1aPpEETvO-13">
          <mxGeometry relative="1" as="geometry" />
        </mxCell>
        <mxCell id="Cb_l33F3aEi2Uz8gXYHJ-70" value="idTipo" style="ellipse;whiteSpace=wrap;html=1;align=center;fillColor=#4f445a;fontColor=#ffffff;strokeColor=#432D57;" vertex="1" parent="WIyWlLk6GJQsqaUBKTNV-1">
          <mxGeometry x="610" y="279" width="100" height="40" as="geometry" />
        </mxCell>
        <mxCell id="Cb_l33F3aEi2Uz8gXYHJ-46" style="rounded=0;orthogonalLoop=1;jettySize=auto;html=1;exitX=0;exitY=1;exitDx=0;exitDy=0;entryX=1;entryY=0.25;entryDx=0;entryDy=0;endArrow=none;endFill=0;" edge="1" parent="WIyWlLk6GJQsqaUBKTNV-1" source="Cb_l33F3aEi2Uz8gXYHJ-44" target="WIyWlLk6GJQsqaUBKTNV-12">
          <mxGeometry relative="1" as="geometry" />
        </mxCell>
        <mxCell id="Cb_l33F3aEi2Uz8gXYHJ-44" value="tipoSangre" style="ellipse;whiteSpace=wrap;html=1;align=center;fillColor=#76608a;strokeColor=#432D57;fontColor=#ffffff;" vertex="1" parent="WIyWlLk6GJQsqaUBKTNV-1">
          <mxGeometry x="666" y="1030" width="100" height="40" as="geometry" />
        </mxCell>
        <mxCell id="cPUdL3hXdBFe-utxo2to-1" style="rounded=0;orthogonalLoop=1;jettySize=auto;html=1;exitX=0.5;exitY=0;exitDx=0;exitDy=0;entryX=0.5;entryY=1;entryDx=0;entryDy=0;endArrow=none;endFill=0;" edge="1" parent="WIyWlLk6GJQsqaUBKTNV-1" source="Cb_l33F3aEi2Uz8gXYHJ-48" target="cPUdL3hXdBFe-utxo2to-0">
          <mxGeometry relative="1" as="geometry" />
        </mxCell>
        <mxCell id="Cb_l33F3aEi2Uz8gXYHJ-48" value="PrioridadTipo" style="shape=rhombus;perimeter=rhombusPerimeter;whiteSpace=wrap;html=1;align=center;fillColor=#76608a;fontColor=#ffffff;strokeColor=#432D57;" vertex="1" parent="WIyWlLk6GJQsqaUBKTNV-1">
          <mxGeometry x="1410" y="-20" width="120" height="60" as="geometry" />
        </mxCell>
        <mxCell id="Cb_l33F3aEi2Uz8gXYHJ-50" value="1 : 1" style="text;strokeColor=none;fillColor=none;spacingLeft=4;spacingRight=4;overflow=hidden;rotatable=0;points=[[0,0.5],[1,0.5]];portConstraint=eastwest;fontSize=12;whiteSpace=wrap;html=1;" vertex="1" parent="WIyWlLk6GJQsqaUBKTNV-1">
          <mxGeometry x="1424" y="-220" width="40" height="30" as="geometry" />
        </mxCell>
        <mxCell id="Cb_l33F3aEi2Uz8gXYHJ-51" value="N : 1" style="text;strokeColor=none;fillColor=none;spacingLeft=4;spacingRight=4;overflow=hidden;rotatable=0;points=[[0,0.5],[1,0.5]];portConstraint=eastwest;fontSize=12;whiteSpace=wrap;html=1;" vertex="1" parent="WIyWlLk6GJQsqaUBKTNV-1">
          <mxGeometry x="403" y="380" width="40" height="30" as="geometry" />
        </mxCell>
        <mxCell id="Cb_l33F3aEi2Uz8gXYHJ-52" value="1 : N" style="text;strokeColor=none;fillColor=none;spacingLeft=4;spacingRight=4;overflow=hidden;rotatable=0;points=[[0,0.5],[1,0.5]];portConstraint=eastwest;fontSize=12;whiteSpace=wrap;html=1;" vertex="1" parent="WIyWlLk6GJQsqaUBKTNV-1">
          <mxGeometry x="1370" y="-10" width="40" height="30" as="geometry" />
        </mxCell>
        <mxCell id="Cb_l33F3aEi2Uz8gXYHJ-57" style="rounded=0;orthogonalLoop=1;jettySize=auto;html=1;exitX=0.5;exitY=1;exitDx=0;exitDy=0;entryX=0.25;entryY=0;entryDx=0;entryDy=0;endArrow=none;endFill=0;" edge="1" parent="WIyWlLk6GJQsqaUBKTNV-1" source="Cb_l33F3aEi2Uz8gXYHJ-56" target="EHw-qd7V3THNP2IJrnIF-0">
          <mxGeometry relative="1" as="geometry" />
        </mxCell>
        <mxCell id="Cb_l33F3aEi2Uz8gXYHJ-56" value="idUsuario" style="ellipse;whiteSpace=wrap;html=1;align=center;fillColor=#76608a;fontColor=#ffffff;strokeColor=#432D57;" vertex="1" parent="WIyWlLk6GJQsqaUBKTNV-1">
          <mxGeometry x="-430" y="770" width="100" height="40" as="geometry" />
        </mxCell>
        <mxCell id="Cb_l33F3aEi2Uz8gXYHJ-61" style="rounded=0;orthogonalLoop=1;jettySize=auto;html=1;exitX=0.5;exitY=1;exitDx=0;exitDy=0;entryX=1;entryY=0;entryDx=0;entryDy=0;endArrow=none;endFill=0;" edge="1" parent="WIyWlLk6GJQsqaUBKTNV-1" source="Cb_l33F3aEi2Uz8gXYHJ-60" target="WIyWlLk6GJQsqaUBKTNV-12">
          <mxGeometry relative="1" as="geometry" />
        </mxCell>
        <mxCell id="Cb_l33F3aEi2Uz8gXYHJ-60" value="idRol" style="ellipse;whiteSpace=wrap;html=1;align=center;fillColor=#76608a;fontColor=#ffffff;strokeColor=#432D57;" vertex="1" parent="WIyWlLk6GJQsqaUBKTNV-1">
          <mxGeometry x="543" y="1020" width="100" height="40" as="geometry" />
        </mxCell>
        <mxCell id="vldh3vrHryc6X6decwte-3" style="rounded=0;orthogonalLoop=1;jettySize=auto;html=1;entryX=0.5;entryY=1;entryDx=0;entryDy=0;endArrow=none;endFill=0;exitX=0.2;exitY=0;exitDx=0;exitDy=0;exitPerimeter=0;" edge="1" parent="WIyWlLk6GJQsqaUBKTNV-1" source="Cb_l33F3aEi2Uz8gXYHJ-66" target="WIyWlLk6GJQsqaUBKTNV-7">
          <mxGeometry relative="1" as="geometry" />
        </mxCell>
        <mxCell id="Cb_l33F3aEi2Uz8gXYHJ-66" value="idComponente" style="ellipse;whiteSpace=wrap;html=1;align=center;fillColor=#76608a;fontColor=#ffffff;strokeColor=#432D57;" vertex="1" parent="WIyWlLk6GJQsqaUBKTNV-1">
          <mxGeometry x="-50" y="480" width="100" height="40" as="geometry" />
        </mxCell>
        <mxCell id="vldh3vrHryc6X6decwte-7" style="rounded=0;orthogonalLoop=1;jettySize=auto;html=1;endArrow=none;endFill=0;entryX=0.75;entryY=1;entryDx=0;entryDy=0;" edge="1" parent="WIyWlLk6GJQsqaUBKTNV-1" source="Cb_l33F3aEi2Uz8gXYHJ-67" target="WIyWlLk6GJQsqaUBKTNV-7">
          <mxGeometry relative="1" as="geometry" />
        </mxCell>
        <mxCell id="Cb_l33F3aEi2Uz8gXYHJ-67" value="idLugar" style="ellipse;whiteSpace=wrap;html=1;align=center;fillColor=#76608a;fontColor=#ffffff;strokeColor=#432D57;" vertex="1" parent="WIyWlLk6GJQsqaUBKTNV-1">
          <mxGeometry x="-40" y="420" width="100" height="40" as="geometry" />
        </mxCell>
        <mxCell id="Cb_l33F3aEi2Uz8gXYHJ-45" style="rounded=0;orthogonalLoop=1;jettySize=auto;html=1;exitX=0;exitY=1;exitDx=0;exitDy=0;entryX=1;entryY=0.25;entryDx=0;entryDy=0;endArrow=none;endFill=0;" edge="1" parent="WIyWlLk6GJQsqaUBKTNV-1" source="Cb_l33F3aEi2Uz8gXYHJ-43" target="WIyWlLk6GJQsqaUBKTNV-12">
          <mxGeometry relative="1" as="geometry" />
        </mxCell>
        <mxCell id="Cb_l33F3aEi2Uz8gXYHJ-73" style="rounded=0;orthogonalLoop=1;jettySize=auto;html=1;exitX=0.5;exitY=1;exitDx=0;exitDy=0;entryX=0.25;entryY=0;entryDx=0;entryDy=0;endArrow=none;endFill=0;" edge="1" parent="WIyWlLk6GJQsqaUBKTNV-1" source="Cb_l33F3aEi2Uz8gXYHJ-72" target="2T5H_hkiswAVR6A3PdZY-0">
          <mxGeometry relative="1" as="geometry" />
        </mxCell>
        <mxCell id="Cb_l33F3aEi2Uz8gXYHJ-72" value="idLugar" style="ellipse;whiteSpace=wrap;html=1;align=center;fillColor=#76608a;fontColor=#ffffff;strokeColor=#432D57;" vertex="1" parent="WIyWlLk6GJQsqaUBKTNV-1">
          <mxGeometry x="-90" y="-140" width="100" height="40" as="geometry" />
        </mxCell>
        <mxCell id="0LzQlJv-D6ySPSGVPF1X-1" value="" style="rounded=0;orthogonalLoop=1;jettySize=auto;html=1;endArrow=none;endFill=0;entryX=0.5;entryY=0;entryDx=0;entryDy=0;labelBackgroundColor=none;strokeColor=#182E3E;fontColor=default;exitX=0.5;exitY=1;exitDx=0;exitDy=0;" edge="1" parent="WIyWlLk6GJQsqaUBKTNV-1" source="3uJ8KbO14XV1aPpEETvO-50" target="ZWMSjb_5BoOZGEWxqf8j-10">
          <mxGeometry relative="1" as="geometry">
            <mxPoint x="-648" y="-59" as="sourcePoint" />
            <mxPoint x="-335" y="261" as="targetPoint" />
          </mxGeometry>
        </mxCell>
        <mxCell id="ZWMSjb_5BoOZGEWxqf8j-10" value="Hay" style="shape=rhombus;perimeter=rhombusPerimeter;whiteSpace=wrap;html=1;align=center;labelBackgroundColor=none;fillColor=#56517E;strokeColor=#EEEEEE;fontColor=#FFFFFF;" vertex="1" parent="WIyWlLk6GJQsqaUBKTNV-1">
          <mxGeometry x="-353.5" y="-70" width="120" height="60" as="geometry" />
        </mxCell>
        <mxCell id="0LzQlJv-D6ySPSGVPF1X-4" value="N : 1" style="text;strokeColor=none;fillColor=none;spacingLeft=4;spacingRight=4;overflow=hidden;rotatable=0;points=[[0,0.5],[1,0.5]];portConstraint=eastwest;fontSize=12;whiteSpace=wrap;html=1;" vertex="1" parent="WIyWlLk6GJQsqaUBKTNV-1">
          <mxGeometry x="-440" y="334" width="40" height="30" as="geometry" />
        </mxCell>
        <mxCell id="vldh3vrHryc6X6decwte-20" value="1:N" style="text;strokeColor=none;fillColor=none;spacingLeft=4;spacingRight=4;overflow=hidden;rotatable=0;points=[[0,0.5],[1,0.5]];portConstraint=eastwest;fontSize=12;whiteSpace=wrap;html=1;" vertex="1" parent="WIyWlLk6GJQsqaUBKTNV-1">
          <mxGeometry x="-393.5" y="-55" width="40" height="30" as="geometry" />
        </mxCell>
        <mxCell id="vldh3vrHryc6X6decwte-22" value="1 : N" style="text;strokeColor=none;fillColor=none;spacingLeft=4;spacingRight=4;overflow=hidden;rotatable=0;points=[[0,0.5],[1,0.5]];portConstraint=eastwest;fontSize=12;whiteSpace=wrap;html=1;" vertex="1" parent="WIyWlLk6GJQsqaUBKTNV-1">
          <mxGeometry x="-280" y="-420" width="40" height="30" as="geometry" />
        </mxCell>
        <mxCell id="vldh3vrHryc6X6decwte-23" value="&amp;nbsp;1: N" style="text;strokeColor=none;fillColor=none;spacingLeft=4;spacingRight=4;overflow=hidden;rotatable=0;points=[[0,0.5],[1,0.5]];portConstraint=eastwest;fontSize=12;whiteSpace=wrap;html=1;" vertex="1" parent="WIyWlLk6GJQsqaUBKTNV-1">
          <mxGeometry x="-270" y="319" width="40" height="30" as="geometry" />
        </mxCell>
        <mxCell id="vldh3vrHryc6X6decwte-24" value="&amp;nbsp;1: N" style="text;strokeColor=none;fillColor=none;spacingLeft=4;spacingRight=4;overflow=hidden;rotatable=0;points=[[0,0.5],[1,0.5]];portConstraint=eastwest;fontSize=12;whiteSpace=wrap;html=1;" vertex="1" parent="WIyWlLk6GJQsqaUBKTNV-1">
          <mxGeometry x="60" y="100.5" width="40" height="30" as="geometry" />
        </mxCell>
        <mxCell id="0LzQlJv-D6ySPSGVPF1X-6" value="1 : 1" style="text;strokeColor=none;fillColor=none;spacingLeft=4;spacingRight=4;overflow=hidden;rotatable=0;points=[[0,0.5],[1,0.5]];portConstraint=eastwest;fontSize=12;whiteSpace=wrap;html=1;" vertex="1" parent="WIyWlLk6GJQsqaUBKTNV-1">
          <mxGeometry x="-340" y="319" width="40" height="30" as="geometry" />
        </mxCell>
        <mxCell id="0LzQlJv-D6ySPSGVPF1X-7" value="1 : N" style="text;strokeColor=none;fillColor=none;spacingLeft=4;spacingRight=4;overflow=hidden;rotatable=0;points=[[0,0.5],[1,0.5]];portConstraint=eastwest;fontSize=12;whiteSpace=wrap;html=1;" vertex="1" parent="WIyWlLk6GJQsqaUBKTNV-1">
          <mxGeometry x="-345" y="-420" width="40" height="30" as="geometry" />
        </mxCell>
        <mxCell id="0LzQlJv-D6ySPSGVPF1X-8" value="&amp;nbsp;1: N" style="text;strokeColor=none;fillColor=none;spacingLeft=4;spacingRight=4;overflow=hidden;rotatable=0;points=[[0,0.5],[1,0.5]];portConstraint=eastwest;fontSize=12;whiteSpace=wrap;html=1;" vertex="1" parent="WIyWlLk6GJQsqaUBKTNV-1">
          <mxGeometry x="-242" y="-85" width="40" height="30" as="geometry" />
        </mxCell>
        <mxCell id="6EcmEjG_BRAebDjjYikj-2" style="rounded=0;orthogonalLoop=1;jettySize=auto;html=1;exitX=1;exitY=0;exitDx=0;exitDy=0;entryX=0.25;entryY=1;entryDx=0;entryDy=0;endArrow=none;endFill=0;" edge="1" parent="WIyWlLk6GJQsqaUBKTNV-1" source="6EcmEjG_BRAebDjjYikj-0" target="WIyWlLk6GJQsqaUBKTNV-7">
          <mxGeometry relative="1" as="geometry" />
        </mxCell>
        <mxCell id="6EcmEjG_BRAebDjjYikj-0" value="marca" style="ellipse;whiteSpace=wrap;html=1;align=center;fillColor=#76608a;fontColor=#ffffff;strokeColor=#432D57;" vertex="1" parent="WIyWlLk6GJQsqaUBKTNV-1">
          <mxGeometry x="-620" y="585" width="100" height="40" as="geometry" />
        </mxCell>
        <mxCell id="6EcmEjG_BRAebDjjYikj-3" style="rounded=0;orthogonalLoop=1;jettySize=auto;html=1;exitX=1;exitY=0;exitDx=0;exitDy=0;entryX=0.25;entryY=1;entryDx=0;entryDy=0;endArrow=none;endFill=0;" edge="1" parent="WIyWlLk6GJQsqaUBKTNV-1" source="6EcmEjG_BRAebDjjYikj-1" target="WIyWlLk6GJQsqaUBKTNV-7">
          <mxGeometry relative="1" as="geometry" />
        </mxCell>
        <mxCell id="6EcmEjG_BRAebDjjYikj-1" value="Modelo" style="ellipse;whiteSpace=wrap;html=1;align=center;fillColor=#76608a;fontColor=#ffffff;strokeColor=#432D57;" vertex="1" parent="WIyWlLk6GJQsqaUBKTNV-1">
          <mxGeometry x="-700" y="540" width="100" height="40" as="geometry" />
        </mxCell>
        <mxCell id="6EcmEjG_BRAebDjjYikj-15" style="rounded=0;orthogonalLoop=1;jettySize=auto;html=1;exitX=0.5;exitY=0;exitDx=0;exitDy=0;endArrow=none;endFill=0;entryX=0;entryY=1;entryDx=0;entryDy=0;" edge="1" parent="WIyWlLk6GJQsqaUBKTNV-1" source="6EcmEjG_BRAebDjjYikj-14" target="WIyWlLk6GJQsqaUBKTNV-7">
          <mxGeometry relative="1" as="geometry">
            <mxPoint x="-330" y="670" as="targetPoint" />
          </mxGeometry>
        </mxCell>
        <mxCell id="6EcmEjG_BRAebDjjYikj-14" value="serialPC" style="ellipse;whiteSpace=wrap;html=1;align=center;fillColor=#76608a;fontColor=#ffffff;strokeColor=#432D57;" vertex="1" parent="WIyWlLk6GJQsqaUBKTNV-1">
          <mxGeometry x="-725" y="490" width="100" height="40" as="geometry" />
        </mxCell>
        <mxCell id="6EcmEjG_BRAebDjjYikj-17" style="rounded=0;orthogonalLoop=1;jettySize=auto;html=1;exitX=1;exitY=1;exitDx=0;exitDy=0;entryX=0;entryY=0;entryDx=0;entryDy=0;endArrow=none;endFill=0;" edge="1" parent="WIyWlLk6GJQsqaUBKTNV-1" source="6EcmEjG_BRAebDjjYikj-16" target="WIyWlLk6GJQsqaUBKTNV-7">
          <mxGeometry relative="1" as="geometry" />
        </mxCell>
        <mxCell id="6EcmEjG_BRAebDjjYikj-16" value="Procedencia" style="ellipse;whiteSpace=wrap;html=1;align=center;fillColor=#76608a;fontColor=#ffffff;strokeColor=#432D57;" vertex="1" parent="WIyWlLk6GJQsqaUBKTNV-1">
          <mxGeometry x="-453.5" y="259" width="100" height="40" as="geometry" />
        </mxCell>
        <mxCell id="NhlgGVuQGpp-WLmPG3e8-0" value="descripcionComp" style="ellipse;whiteSpace=wrap;html=1;align=center;fillColor=#76608a;fontColor=#ffffff;strokeColor=#432D57;" vertex="1" parent="WIyWlLk6GJQsqaUBKTNV-1">
          <mxGeometry x="150" y="-65" width="100" height="40" as="geometry" />
        </mxCell>
        <mxCell id="cPUdL3hXdBFe-utxo2to-0" value="PrioridadC" style="whiteSpace=wrap;html=1;align=center;fillColor=#76608a;fontColor=#ffffff;strokeColor=#432D57;" vertex="1" parent="WIyWlLk6GJQsqaUBKTNV-1">
          <mxGeometry x="1420" y="-270" width="100" height="40" as="geometry" />
        </mxCell>
        <mxCell id="1kGeTigVETE41N0ks8Uf-3" style="rounded=0;orthogonalLoop=1;jettySize=auto;html=1;exitX=0.5;exitY=1;exitDx=0;exitDy=0;entryX=0;entryY=0;entryDx=0;entryDy=0;endArrow=none;endFill=0;" edge="1" parent="WIyWlLk6GJQsqaUBKTNV-1" source="1kGeTigVETE41N0ks8Uf-0" target="cPUdL3hXdBFe-utxo2to-0">
          <mxGeometry relative="1" as="geometry" />
        </mxCell>
        <mxCell id="1kGeTigVETE41N0ks8Uf-0" value="idPrioridadC" style="ellipse;whiteSpace=wrap;html=1;align=center;fontStyle=4;labelBackgroundColor=none;fillColor=#56517E;strokeColor=#EEEEEE;fontColor=#FFFFFF;" vertex="1" parent="WIyWlLk6GJQsqaUBKTNV-1">
          <mxGeometry x="1320" y="-380" width="100" height="40" as="geometry" />
        </mxCell>
        <mxCell id="1kGeTigVETE41N0ks8Uf-5" style="rounded=0;orthogonalLoop=1;jettySize=auto;html=1;exitX=0.5;exitY=1;exitDx=0;exitDy=0;endArrow=none;endFill=0;" edge="1" parent="WIyWlLk6GJQsqaUBKTNV-1" source="1kGeTigVETE41N0ks8Uf-1" target="cPUdL3hXdBFe-utxo2to-0">
          <mxGeometry relative="1" as="geometry" />
        </mxCell>
        <mxCell id="1kGeTigVETE41N0ks8Uf-1" value="IdTipo" style="ellipse;whiteSpace=wrap;html=1;align=center;fillColor=#76608a;fontColor=#ffffff;strokeColor=#432D57;" vertex="1" parent="WIyWlLk6GJQsqaUBKTNV-1">
          <mxGeometry x="1420" y="-410" width="100" height="40" as="geometry" />
        </mxCell>
        <mxCell id="1kGeTigVETE41N0ks8Uf-4" style="rounded=0;orthogonalLoop=1;jettySize=auto;html=1;exitX=0.5;exitY=1;exitDx=0;exitDy=0;entryX=1;entryY=0;entryDx=0;entryDy=0;endArrow=none;endFill=0;" edge="1" parent="WIyWlLk6GJQsqaUBKTNV-1" source="1kGeTigVETE41N0ks8Uf-2" target="cPUdL3hXdBFe-utxo2to-0">
          <mxGeometry relative="1" as="geometry" />
        </mxCell>
        <mxCell id="1kGeTigVETE41N0ks8Uf-2" value="nivel" style="ellipse;whiteSpace=wrap;html=1;align=center;fillColor=#76608a;fontColor=#ffffff;strokeColor=#432D57;" vertex="1" parent="WIyWlLk6GJQsqaUBKTNV-1">
          <mxGeometry x="1520" y="-380" width="100" height="40" as="geometry" />
        </mxCell>
        <mxCell id="1kGeTigVETE41N0ks8Uf-13" style="rounded=0;orthogonalLoop=1;jettySize=auto;html=1;exitX=0.5;exitY=0;exitDx=0;exitDy=0;entryX=0.5;entryY=1;entryDx=0;entryDy=0;endArrow=none;endFill=0;" edge="1" parent="WIyWlLk6GJQsqaUBKTNV-1" source="1kGeTigVETE41N0ks8Uf-7" target="WIyWlLk6GJQsqaUBKTNV-7">
          <mxGeometry relative="1" as="geometry" />
        </mxCell>
        <mxCell id="1kGeTigVETE41N0ks8Uf-7" value="nombre" style="ellipse;whiteSpace=wrap;html=1;align=center;fillColor=#76608a;fontColor=#ffffff;strokeColor=#432D57;" vertex="1" parent="WIyWlLk6GJQsqaUBKTNV-1">
          <mxGeometry x="-413" y="615" width="100" height="40" as="geometry" />
        </mxCell>
        <mxCell id="1kGeTigVETE41N0ks8Uf-9" style="rounded=0;orthogonalLoop=1;jettySize=auto;html=1;exitX=0.5;exitY=1;exitDx=0;exitDy=0;entryX=0.5;entryY=0;entryDx=0;entryDy=0;endArrow=none;endFill=0;" edge="1" parent="WIyWlLk6GJQsqaUBKTNV-1" source="1kGeTigVETE41N0ks8Uf-8" target="3uJ8KbO14XV1aPpEETvO-50">
          <mxGeometry relative="1" as="geometry" />
        </mxCell>
        <mxCell id="1kGeTigVETE41N0ks8Uf-8" value="Piso" style="ellipse;whiteSpace=wrap;html=1;align=center;fillColor=#76608a;fontColor=#ffffff;strokeColor=#432D57;" vertex="1" parent="WIyWlLk6GJQsqaUBKTNV-1">
          <mxGeometry x="-343.5" y="-570" width="100" height="40" as="geometry" />
        </mxCell>
        <mxCell id="1kGeTigVETE41N0ks8Uf-14" style="rounded=0;orthogonalLoop=1;jettySize=auto;html=1;exitX=0.5;exitY=0;exitDx=0;exitDy=0;entryX=0.5;entryY=1;entryDx=0;entryDy=0;endArrow=none;endFill=0;" edge="1" parent="WIyWlLk6GJQsqaUBKTNV-1" source="1kGeTigVETE41N0ks8Uf-10" target="WIyWlLk6GJQsqaUBKTNV-7">
          <mxGeometry relative="1" as="geometry" />
        </mxCell>
        <mxCell id="1kGeTigVETE41N0ks8Uf-10" value="HDD" style="ellipse;whiteSpace=wrap;html=1;align=center;fillColor=#76608a;fontColor=#ffffff;strokeColor=#432D57;" vertex="1" parent="WIyWlLk6GJQsqaUBKTNV-1">
          <mxGeometry x="-310" y="615" width="100" height="40" as="geometry" />
        </mxCell>
        <mxCell id="1kGeTigVETE41N0ks8Uf-15" style="rounded=0;orthogonalLoop=1;jettySize=auto;html=1;exitX=0.5;exitY=0;exitDx=0;exitDy=0;entryX=0.5;entryY=1;entryDx=0;entryDy=0;endArrow=none;endFill=0;" edge="1" parent="WIyWlLk6GJQsqaUBKTNV-1" source="1kGeTigVETE41N0ks8Uf-11" target="WIyWlLk6GJQsqaUBKTNV-7">
          <mxGeometry relative="1" as="geometry">
            <mxPoint x="-260" y="420" as="targetPoint" />
          </mxGeometry>
        </mxCell>
        <mxCell id="1kGeTigVETE41N0ks8Uf-11" value="LAN" style="ellipse;whiteSpace=wrap;html=1;align=center;fillColor=#76608a;fontColor=#ffffff;strokeColor=#432D57;" vertex="1" parent="WIyWlLk6GJQsqaUBKTNV-1">
          <mxGeometry x="-202" y="600" width="100" height="40" as="geometry" />
        </mxCell>
        <mxCell id="1kGeTigVETE41N0ks8Uf-16" style="rounded=0;orthogonalLoop=1;jettySize=auto;html=1;exitX=0.5;exitY=0;exitDx=0;exitDy=0;entryX=0.5;entryY=1;entryDx=0;entryDy=0;endArrow=none;endFill=0;" edge="1" parent="WIyWlLk6GJQsqaUBKTNV-1" source="1kGeTigVETE41N0ks8Uf-12" target="WIyWlLk6GJQsqaUBKTNV-7">
          <mxGeometry relative="1" as="geometry" />
        </mxCell>
        <mxCell id="1kGeTigVETE41N0ks8Uf-12" value="WIFI" style="ellipse;whiteSpace=wrap;html=1;align=center;fillColor=#76608a;fontColor=#ffffff;strokeColor=#432D57;" vertex="1" parent="WIyWlLk6GJQsqaUBKTNV-1">
          <mxGeometry x="-102" y="575" width="100" height="40" as="geometry" />
        </mxCell>
        <mxCell id="1kGeTigVETE41N0ks8Uf-18" style="rounded=0;orthogonalLoop=1;jettySize=auto;html=1;exitX=0.5;exitY=1;exitDx=0;exitDy=0;entryX=0.75;entryY=0;entryDx=0;entryDy=0;endArrow=none;endFill=0;" edge="1" parent="WIyWlLk6GJQsqaUBKTNV-1" source="1kGeTigVETE41N0ks8Uf-17" target="2T5H_hkiswAVR6A3PdZY-0">
          <mxGeometry relative="1" as="geometry" />
        </mxCell>
        <mxCell id="1kGeTigVETE41N0ks8Uf-17" value="serialcomponente" style="ellipse;whiteSpace=wrap;html=1;align=center;fillColor=#76608a;fontColor=#ffffff;strokeColor=#432D57;" vertex="1" parent="WIyWlLk6GJQsqaUBKTNV-1">
          <mxGeometry x="70" y="-190" width="100" height="40" as="geometry" />
        </mxCell>
        <mxCell id="1kGeTigVETE41N0ks8Uf-20" style="rounded=0;orthogonalLoop=1;jettySize=auto;html=1;exitX=0;exitY=1;exitDx=0;exitDy=0;entryX=1;entryY=0;entryDx=0;entryDy=0;endArrow=none;endFill=0;" edge="1" parent="WIyWlLk6GJQsqaUBKTNV-1" source="1kGeTigVETE41N0ks8Uf-19" target="2T5H_hkiswAVR6A3PdZY-0">
          <mxGeometry relative="1" as="geometry" />
        </mxCell>
        <mxCell id="1kGeTigVETE41N0ks8Uf-19" value="placaComponente" style="ellipse;whiteSpace=wrap;html=1;align=center;fillColor=#76608a;fontColor=#ffffff;strokeColor=#432D57;" vertex="1" parent="WIyWlLk6GJQsqaUBKTNV-1">
          <mxGeometry x="150" y="-150" width="100" height="40" as="geometry" />
        </mxCell>
        <mxCell id="TEqH-T7N3gkKWU2Bk4Ca-0" value="N : 1" style="text;strokeColor=none;fillColor=none;spacingLeft=4;spacingRight=4;overflow=hidden;rotatable=0;points=[[0,0.5],[1,0.5]];portConstraint=eastwest;fontSize=12;whiteSpace=wrap;html=1;" vertex="1" parent="WIyWlLk6GJQsqaUBKTNV-1">
          <mxGeometry x="1424" y="229" width="40" height="30" as="geometry" />
        </mxCell>
      </root>
    </mxGraphModel>
  </diagram>
</mxfile>
